<?xml version="1.0" encoding="utf-8"?>
<!-- Generator: Adobe Illustrator 26.0.1, SVG Export Plug-In . SVG Version: 6.00 Build 0)  -->
<svg version="1.1" id="Calque_1" xmlns="http://www.w3.org/2000/svg" xmlns:xlink="http://www.w3.org/1999/xlink" x="0px" y="0px"
	 viewBox="0 0 332.8 100.1" style="enable-background:new 0 0 332.8 100.1;" xml:space="preserve">
<style type="text/css">
	.st0{fill:#FFFFFF;}
</style>
<g>
	<path class="st0" d="M166.4,100.1c49.8,0,99.5,0,149.3,0c2.1,0,4.2,0,6.2-0.1c3.1-0.1,5.6-1.6,7.7-3.8c2.5-2.7,3.2-6,3.2-9.6
		c0-24.7,0-49.3,0-74c0-2.7-0.6-5.2-2.2-7.3c-2.6-3.6-6.3-5.2-10.7-5.2C218,0,116.1,0,14.2,0c-0.7,0-1.4,0-2,0C5.3,0.3,0,5.4,0,12.3
		c0.1,25.2,0,50.4,0.1,75.5c0,1.4,0.2,2.8,0.6,4.1c0.9,2.8,2.7,4.9,5.2,6.4c2.2,1.4,4.6,1.7,7.2,1.7
		C64.2,100.1,115.3,100.1,166.4,100.1z"/>
	<path d="M166.4,100.1c-51.1,0-102.2,0-153.4,0c-2.6,0-5-0.3-7.2-1.7c-2.5-1.5-4.3-3.6-5.2-6.4c-0.4-1.3-0.6-2.7-0.6-4.1
		c0-25.2,0-50.4-0.1-75.5C0,5.4,5.3,0.3,12.2,0c0.7,0,1.4,0,2,0C116.1,0,218,0,319.9,0c4.4,0,8.1,1.7,10.7,5.2
		c1.6,2.1,2.2,4.7,2.2,7.3c0,24.7,0,49.3,0,74c0,3.6-0.7,6.9-3.2,9.6c-2.1,2.2-4.6,3.7-7.7,3.8c-2.1,0.1-4.2,0.1-6.2,0.1
		C265.9,100.1,216.2,100.1,166.4,100.1z M166.3,96.8c50.7,0,101.4,0,152.2,0c2.2,0,4.3-0.6,6.1-1.8c3.1-2.1,4.2-5.3,4.2-8.9
		c0-23.6,0-47.2,0-70.8c0-1.3-0.1-2.7-0.3-4c-0.6-3.5-2.6-5.9-5.9-7c-2-0.7-4.2-0.7-6.3-0.7c-100.6,0-201.2,0-301.8,0
		c-1.2,0-2.5,0-3.7,0.4C6.3,5.6,4,8.7,4,13.5c0,24.4,0,48.8,0,73.3c0,1.6,0.3,3.3,1,4.7c1.8,3.6,5,5.3,9.1,5.3
		C64.9,96.8,115.6,96.8,166.3,96.8z"/>
	<path class="st0" d="M166.3,96.8c-50.7,0-101.4,0-152.2,0c-4,0-7.2-1.7-9.1-5.3c-0.7-1.4-1-3.1-1-4.7C4,62.3,4,37.9,4,13.5
		C4,8.7,6.3,5.6,10.8,4c1.1-0.4,2.4-0.4,3.7-0.4c100.6,0,201.2,0,301.8,0c2.1,0,4.4,0.1,6.3,0.7c3.2,1.1,5.3,3.5,5.9,7
		c0.2,1.3,0.3,2.7,0.3,4c0,23.6,0,47.2,0,70.8c0,3.6-1.1,6.7-4.2,8.9c-1.8,1.2-3.9,1.8-6.1,1.8C267.8,96.8,217,96.8,166.3,96.8z
		 M82,37.8c-3.1-4.7-8.3-6.4-13.1-6.2c-2.4,0.1-4.5,1-6.7,1.9c-1.8,0.8-3.6,1.3-5.5,0.6c-1.3-0.5-2.7-1-4-1.5
		c-4-1.6-7.9-0.9-11.4,1.3c-5.2,3.2-7.7,8.1-7.9,14.2c-0.1,3,0.1,6.1,0.6,9.1c0.4,2.5,1.4,5,2.4,7.5c1.8,4.5,4.4,8.5,7.9,11.8
		c2.7,2.5,5.7,2.7,8.9,1.3c2.1-0.9,4.4-2,6.8-1.6c2,0.4,4.1,0.9,6,1.6c3.7,1.5,6.7,1,9.5-1.9c3.4-3.5,5.8-7.6,7.7-12.1
		c0.5-1.3,0.2-1.7-0.9-2.3C76,58,73.6,50.4,76.6,43.9C77.7,41.4,79.5,39.3,82,37.8z M144.6,65.4c0.1,0,0.2,0,0.4-0.1
		c0.7,0.6,1.4,1.4,2.2,1.8c4.8,2.5,11,0.7,13.6-4.1c2.2-4,2.6-8.3,1.3-12.6c-0.6-1.9-1.6-3.8-3-5.2c-3.7-3.7-10.2-3.5-13.6,0.1
		c-0.4,0.4-0.9,0.8-1.5,1.4c-0.1-1.1-0.1-1.9-0.2-2.7c-0.1-0.3-0.4-0.8-0.7-0.9c-1.3-0.1-2.6,0-3.9,0c0,2.2,0,4.2,0,6.2
		c0,6.6,0,13.2,0,19.7c0,2.3,0,4.6,0,6.9c0,1.7,0,1.7,1.6,1.6c1,0,1.9,0,2.9,0c0.8,0,1.1-0.3,1-1.1c0-2.4,0-4.9,0-7.3
		C144.6,67.9,144.6,66.6,144.6,65.4z M172.9,46.4c-0.1,0-0.3,0-0.4-0.1c-0.1-0.8-0.3-1.7-0.4-2.5c0-0.6-0.3-0.8-0.9-0.8
		c-0.9,0-1.8,0.1-2.8,0c-0.9-0.1-1.2,0.4-1.1,1.2c0.1,5.2,0.2,10.4,0.3,15.5c0,5.5,0,11.1,0,16.6c0,0.5-0.2,1.2,0.7,1.2
		c1.5,0,3,0,4.8,0c0-4.2,0-8.3,0-12.6c0.8,0.7,1.3,1.3,1.8,1.7c4,2.8,10.7,1.5,13.4-2.6c1.1-1.7,1.9-3.5,2.4-5.5
		c1-4.4,0.4-8.6-2.3-12.3c-2.7-3.7-6.4-4.5-10.6-3.4C175.9,43.4,174.1,44.5,172.9,46.4z M134.1,67.7c-0.1-0.6-0.1-1-0.3-1.3
		c-1.2-3.7-2.3-7.3-3.5-11c-1.4-4.3-2.8-8.6-4.2-12.9c-0.9-2.7-1.7-5.5-2.7-8.2c-0.1-0.4-0.7-0.9-1.1-1c-1.7-0.1-3.4-0.1-5,0
		c-0.4,0-1,0.6-1.2,1c-0.7,1.8-1.2,3.6-1.8,5.4c-1,3.2-2.1,6.4-3.2,9.6c-1.4,4.4-2.8,8.8-4.2,13.2c-0.5,1.6-1,3.2-1.6,5
		c1.9,0,3.5,0,5.1,0c0.3,0,0.6-0.6,0.8-0.9c0.9-2.7,1.7-5.4,2.4-8.1c0.2-1,0.7-1.1,1.5-1.1c2.9,0,5.8,0.1,8.7,0
		c1.1,0,1.5,0.5,1.8,1.3c0.7,2.3,1.4,4.6,2.1,6.9c0.2,0.7,0.7,1.7,1.1,1.8C130.6,67.8,132.3,67.7,134.1,67.7z M220.3,38.8
		c0.3-1,0.6-2,1-3c0.4-1,0.1-1.6-0.9-1.9c-3.9-1.2-7.9-1.5-11.8-0.1c-4.9,1.7-7.4,7.2-5.4,11.9c1.3,3.1,3.9,4.7,6.8,6
		c2.2,1,4.6,1.7,6.4,3.5c2.2,2.3,1.3,6.8-1.7,7.8c-2.4,0.8-4.8,0.9-7.3,0.2c-1.4-0.4-2.7-0.9-4.3-1.5c-0.4,1.4-0.8,2.8-1.2,4.3
		c2,1.4,4.2,1.7,6.5,2c3.2,0.4,6.3,0,9.3-1.3c4.6-2.1,6.2-7.6,5-11.3c-1-3.2-3.2-5-6-6.4c-2.2-1.1-4.6-2.1-6.7-3.3
		c-3-1.8-2.8-5.8,0.2-7.5c2.2-1.2,4.6-0.8,6.9-0.5C218.1,37.9,219.2,38.4,220.3,38.8z M256.6,42.5c-5.5-0.3-9.5,2.9-11.2,7.2
		c-1.4,3.4-1.6,7-0.3,10.6c0.9,2.6,2.3,4.6,4.6,6.1c2.9,1.9,6.1,2.2,9.5,1.5c3.4-0.7,5.9-2.5,7.5-5.5c1.2-2.1,2-4.3,1.7-6.8
		c-0.2-1.8-0.1-3.6-0.6-5.3C266.2,45.7,262.5,42.3,256.6,42.5z M302.4,56.6C302.4,56.6,302.4,56.6,302.4,56.6c2.3,0,4.6,0,7,0
		c1.1,0,1.8-0.4,1.7-1.6c-0.1-1.7-0.2-3.5-0.6-5.1c-0.8-2.9-2.3-5.3-5.2-6.6c-2-0.9-4.1-0.9-6.2-0.8c-3.2,0.2-5.7,1.8-7.4,4.4
		c-2.7,4-3.1,8.4-1.9,13c0.8,3.2,2.8,5.6,5.8,6.9c3.7,1.6,7.5,1.4,11.2,0.5c2.7-0.6,2.6-0.8,2.3-3.3c-0.2-1.1-0.7-1.2-1.6-0.9
		c-2.6,0.7-5.1,1.1-7.9,0.5c-2.9-0.7-5.1-3.2-5.3-6.1c-0.1-0.7,0.1-1,0.9-1C297.6,56.6,300,56.6,302.4,56.6z M235.1,36.9
		c-1.3,0.4-2.4,0.7-3.6,1c-1.5,0.3-2,1.2-1.7,2.6c0,0,0,0.1,0,0.1c0,2.4,0,2.4-2.3,2.4c-0.2,0-0.3,0-0.5,0c-1.7,0.4-0.5,1.8-0.8,2.7
		c-0.2,0.6-0.1,1.2,0.8,1.3c0.4,0,0.8,0,1.2,0c1.6,0,1.6,0.1,1.6,1.6c0.1,4.6,0.1,9.3,0.3,13.9c0.1,1.3,0.8,2.7,1.6,3.7
		c1.6,1.9,4,2.2,6.4,1.9c2.7-0.3,2.7-0.3,2.7-2.9c0-1.7,0-1.8-1.7-1.6c-2.2,0.3-3.7-0.7-3.8-3.3c-0.2-4.1-0.1-8.3-0.1-12.4
		c0-0.3,0.6-0.8,0.9-0.9c1.4-0.1,2.7,0,4.1-0.1c0.3,0,0.9-0.5,0.9-0.8c-0.2-1.1,0.6-2.3-0.5-3.2c-0.1-0.1-0.5,0-0.7,0
		c-1.1,0-2.2,0-3.2,0c-1.5,0-1.6-0.1-1.5-1.5C235.1,40.1,235.1,38.6,235.1,36.9z M278.5,46.9c-0.1,0-0.2,0-0.3,0
		c-0.1-0.9-0.2-1.8-0.2-2.8c0-0.8-0.3-1.2-1.1-1.1c-0.9,0-1.8,0-2.8,0c-0.7,0-0.9,0.2-0.9,0.9c0.1,1.3,0.2,2.7,0.2,4.1
		c0,6.1,0,12.3,0,18.4c0,1,0.3,1.4,1.3,1.3c0.8-0.1,1.7-0.1,2.5,0c1.1,0.1,1.5-0.3,1.5-1.4c-0.1-4-0.1-8.1,0-12.1
		c0.1-2.7,1-5.1,3.8-6.2c0.9-0.4,1.9-0.3,2.9-0.3c0.7,0,1-0.2,1-1c0-1.1,0-2.2-0.1-3.3c0-0.3-0.5-0.8-0.8-0.8
		c-2-0.2-3.7,0.3-5.1,1.8C279.8,45.1,279.2,46,278.5,46.9z M58.3,29.3c0,1.6,0.1,1.7,1.7,1.5c0.5-0.1,1-0.1,1.5-0.2
		c5.8-1.9,8.6-6.7,9.3-11.8c0.3-2.1,0.1-2.6-2.1-1.7c-0.2,0.1-0.4,0.1-0.6,0.1C62.7,18.8,58.7,23.7,58.3,29.3z"/>
	<path d="M82,37.8c-2.5,1.5-4.3,3.5-5.4,6.1c-3,6.4-0.5,14.1,5.7,17.5c1.1,0.6,1.4,1,0.9,2.3c-1.8,4.5-4.3,8.6-7.7,12.1
		c-2.8,2.9-5.8,3.4-9.5,1.9c-1.9-0.8-4-1.3-6-1.6c-2.4-0.4-4.6,0.6-6.8,1.6c-3.2,1.4-6.3,1.2-8.9-1.3c-3.5-3.3-6.1-7.4-7.9-11.8
		c-1-2.4-2-4.9-2.4-7.5c-0.5-3-0.7-6.1-0.6-9.1c0.2-6,2.8-11,7.9-14.2c3.5-2.2,7.4-2.9,11.4-1.3c1.3,0.5,2.7,1,4,1.5
		c1.9,0.7,3.7,0.2,5.5-0.6c2.1-0.9,4.3-1.8,6.7-1.9C73.7,31.4,79,33.1,82,37.8z"/>
	<path d="M144.6,65.4c0,1.3,0,2.6,0,3.9c0,2.4,0,4.9,0,7.3c0,0.8-0.3,1.1-1,1.1c-1,0-1.9,0-2.9,0c-1.6,0-1.6,0-1.6-1.6
		c0-2.3,0-4.6,0-6.9c0-6.6,0-13.2,0-19.7c0-2,0-4,0-6.2c1.3,0,2.6,0,3.9,0c0.2,0,0.6,0.5,0.7,0.9c0.1,0.8,0.1,1.6,0.2,2.7
		c0.6-0.6,1.1-0.9,1.5-1.4c3.4-3.5,9.9-3.8,13.6-0.1c1.4,1.4,2.4,3.3,3,5.2c1.3,4.3,0.9,8.6-1.3,12.6c-2.7,4.8-8.8,6.7-13.6,4.1
		c-0.8-0.4-1.4-1.2-2.2-1.8C144.8,65.3,144.7,65.3,144.6,65.4z M144.3,55.6c0.1,0,0.2,0,0.3,0.1c0,0.8,0,1.6,0,2.4
		c-0.1,2.1,1.9,5.2,4.9,5.9c1.6,0.4,5-0.6,6.2-2.7c1.9-3.3,2-6.8,0.8-10.2c-0.7-2.3-2.4-3.8-4.9-4.2c-2.8-0.4-5,0.8-6.1,3.3
		C144.7,51.8,144.6,53.8,144.3,55.6z"/>
	<path d="M172.9,46.4c1.2-1.9,2.9-3,5-3.5c4.2-1,7.9-0.3,10.6,3.4c2.7,3.7,3.2,7.8,2.3,12.3c-0.4,2-1.2,3.8-2.4,5.5
		c-2.7,4.1-9.4,5.4-13.4,2.6c-0.6-0.4-1-1-1.8-1.7c0,4.3,0,8.4,0,12.6c-1.8,0-3.3,0-4.8,0c-0.9,0-0.7-0.7-0.7-1.2
		c0-5.5,0-11.1,0-16.6c0-5.2-0.2-10.4-0.3-15.5c0-0.8,0.2-1.3,1.1-1.2c0.9,0.1,1.8,0,2.8,0c0.6,0,0.8,0.2,0.9,0.8
		c0.1,0.8,0.3,1.7,0.4,2.5C172.7,46.4,172.8,46.4,172.9,46.4z M173,55.5c0,0,0.1,0,0.1,0c0,0.8,0,1.7,0,2.5c0,2.8,1.7,4.9,4.6,5.8
		c2.2,0.7,5.1-0.4,6.3-2.5c2.1-3.6,2.2-7.4,0.5-11.1c-1.1-2.4-3.1-3.8-6.2-3.4c-1.9,0.3-4.1,1.6-4.8,4.4
		C173.1,52.6,173.1,54.1,173,55.5z"/>
	<path d="M134.1,67.7c-1.8,0-3.5,0.1-5.1-0.1c-0.4-0.1-0.9-1.1-1.1-1.8c-0.8-2.3-1.4-4.6-2.1-6.9c-0.3-0.9-0.7-1.4-1.8-1.3
		c-2.9,0.1-5.8,0-8.7,0c-0.8,0-1.2,0.1-1.5,1.1c-0.7,2.7-1.6,5.4-2.4,8.1c-0.1,0.4-0.5,0.9-0.8,0.9c-1.6,0.1-3.2,0-5.1,0
		c0.6-1.8,1.1-3.4,1.6-5c1.4-4.4,2.8-8.8,4.2-13.2c1-3.2,2.1-6.4,3.2-9.6c0.6-1.8,1.1-3.6,1.8-5.4c0.2-0.4,0.7-1,1.2-1
		c1.7-0.1,3.4-0.1,5,0c0.4,0,1,0.5,1.1,1c0.9,2.7,1.8,5.4,2.7,8.2c1.4,4.3,2.8,8.6,4.2,12.9c1.2,3.6,2.4,7.3,3.5,11
		C133.9,66.7,134,67.1,134.1,67.7z M124.2,53.3c-1.6-5-3.1-9.9-4.6-15c-0.2,0.4-0.3,0.6-0.4,0.8c-0.6,2.3-1.2,4.6-1.9,6.9
		c-0.6,2-1.3,4-1.9,6c-0.4,1.2-0.2,1.5,1,1.5c2.2,0,4.3,0,6.5,0C123.3,53.4,123.7,53.3,124.2,53.3z"/>
	<path d="M220.3,38.8c-1.1-0.4-2.2-0.9-3.3-1c-2.3-0.4-4.7-0.7-6.9,0.5c-3,1.7-3.2,5.7-0.2,7.5c2.1,1.3,4.5,2.2,6.7,3.3
		c2.8,1.4,5,3.2,6,6.4c1.2,3.7-0.4,9.3-5,11.3c-3,1.3-6.1,1.7-9.3,1.3c-2.3-0.3-4.5-0.7-6.5-2c0.4-1.4,0.8-2.9,1.2-4.3
		c1.6,0.5,2.9,1.1,4.3,1.5c2.4,0.7,4.9,0.6,7.3-0.2c3.1-1,4-5.5,1.7-7.8c-1.8-1.8-4.2-2.5-6.4-3.5c-2.9-1.3-5.5-2.9-6.8-6
		c-2-4.7,0.6-10.2,5.4-11.9c4-1.4,7.9-1.1,11.8,0.1c1,0.3,1.3,0.8,0.9,1.9C220.9,36.7,220.6,37.7,220.3,38.8z"/>
	<path d="M256.6,42.5c5.9-0.2,9.6,3.2,11.2,7.7c0.6,1.6,0.5,3.5,0.6,5.3c0.3,2.5-0.5,4.7-1.7,6.8c-1.6,3-4.2,4.8-7.5,5.5
		c-3.4,0.7-6.6,0.4-9.5-1.5c-2.2-1.4-3.7-3.5-4.6-6.1c-1.2-3.6-1-7.1,0.3-10.6C247.2,45.4,251.1,42.3,256.6,42.5z M262.8,54.9
		c0.1-1.9-0.5-3.9-1.6-5.8c-2.2-3.5-7.2-3.7-9.5-0.2c-0.8,1.2-1.4,2.6-1.7,4c-0.7,4-0.1,7.7,3.2,10.5c1.2,1,5.2,0.9,6.4-0.3
		C262,60.9,262.9,58.3,262.8,54.9z"/>
	<path d="M302.4,56.6c-2.4,0-4.8,0-7.2,0c-0.8,0-1,0.2-0.9,1c0.3,2.9,2.4,5.4,5.3,6.1c2.7,0.7,5.3,0.3,7.9-0.5
		c0.9-0.2,1.4-0.2,1.6,0.9c0.4,2.5,0.5,2.6-2.3,3.3c-3.8,0.9-7.6,1.1-11.2-0.5c-3.1-1.3-5-3.7-5.8-6.9c-1.1-4.6-0.8-9,1.9-13
		c1.8-2.6,4.3-4.2,7.4-4.4c2.1-0.1,4.2-0.2,6.2,0.8c2.9,1.4,4.4,3.8,5.2,6.6c0.4,1.6,0.5,3.4,0.6,5.1c0.1,1.2-0.6,1.6-1.7,1.6
		C307,56.6,304.7,56.6,302.4,56.6C302.4,56.6,302.4,56.6,302.4,56.6z M300.1,52.8c1.6,0,3.1,0,4.7,0c0.7,0,1.1-0.2,1-0.9
		c-0.2-2.1-0.9-4.1-2.9-5c-4.4-2.1-7.7,1-8.6,5c-0.1,0.7,0.2,1,1,1C296.9,52.8,298.5,52.8,300.1,52.8z"/>
	<path d="M235.1,36.9c0,1.7,0,3.1,0,4.6c0,1.4,0,1.5,1.5,1.5c1.1,0,2.2,0,3.2,0c0.2,0,0.6-0.1,0.7,0c1.1,0.9,0.3,2.1,0.5,3.2
		c0,0.2-0.5,0.7-0.9,0.8c-1.4,0.1-2.7,0-4.1,0.1c-0.3,0-0.9,0.6-0.9,0.9c0,4.1-0.1,8.3,0.1,12.4c0.1,2.6,1.6,3.6,3.8,3.3
		c1.7-0.2,1.7-0.1,1.7,1.6c0,2.6,0,2.6-2.7,2.9c-2.4,0.3-4.7,0-6.4-1.9c-0.8-1-1.6-2.4-1.6-3.7c-0.3-4.6-0.3-9.2-0.3-13.9
		c0-1.6,0-1.6-1.6-1.6c-0.4,0-0.8,0-1.2,0c-0.9-0.1-1-0.7-0.8-1.3c0.3-0.9-0.9-2.2,0.8-2.7c0.2,0,0.3,0,0.5,0c2.3,0,2.3,0,2.3-2.4
		c0,0,0-0.1,0-0.1c-0.3-1.4,0.2-2.3,1.7-2.6C232.7,37.7,233.8,37.3,235.1,36.9z"/>
	<path d="M278.5,46.9c0.7-0.9,1.3-1.8,2-2.6c1.4-1.4,3.1-2,5.1-1.8c0.3,0,0.8,0.5,0.8,0.8c0.1,1.1,0,2.2,0.1,3.3c0,0.7-0.3,0.9-1,1
		c-1,0-2.1-0.1-2.9,0.3c-2.8,1.1-3.7,3.5-3.8,6.2c-0.1,4-0.1,8.1,0,12.1c0,1.1-0.4,1.5-1.5,1.4c-0.8-0.1-1.7-0.1-2.5,0
		c-1,0.1-1.3-0.3-1.3-1.3c0-6.1,0-12.3,0-18.4c0-1.4-0.1-2.7-0.2-4.1c-0.1-0.7,0.2-0.9,0.9-0.9c0.9,0,1.8,0,2.8,0
		c0.8,0,1.1,0.3,1.1,1.1c0,0.9,0.1,1.8,0.2,2.8C278.3,46.9,278.4,46.9,278.5,46.9z"/>
	<path d="M58.3,29.3c0.4-5.6,4.4-10.6,9.8-12.1c0.2-0.1,0.4-0.1,0.6-0.1c2.3-0.9,2.4-0.4,2.1,1.7c-0.6,5-3.5,9.9-9.3,11.8
		c-0.5,0.2-1,0.2-1.5,0.2C58.4,31.1,58.3,30.9,58.3,29.3z"/>
	<path class="st0" d="M144.3,55.6c0.3-1.8,0.4-3.8,1.1-5.4c1.1-2.5,3.3-3.7,6.1-3.3c2.5,0.3,4.1,1.9,4.9,4.2
		c1.1,3.5,1.1,6.9-0.8,10.2c-1.2,2.1-4.5,3-6.2,2.7c-3-0.7-5-3.7-4.9-5.9c0-0.8,0-1.6,0-2.4C144.5,55.6,144.4,55.6,144.3,55.6z"/>
	<path class="st0" d="M173,55.5c0.2-1.4,0.2-2.9,0.5-4.3c0.7-2.8,2.9-4.1,4.8-4.4c3.1-0.4,5.1,1,6.2,3.4c1.7,3.7,1.6,7.5-0.5,11.1
		c-1.2,2.1-4.1,3.2-6.3,2.5c-2.9-0.9-4.6-3-4.6-5.8c0-0.8,0-1.7,0-2.5C173,55.5,173,55.5,173,55.5z"/>
	<path class="st0" d="M124.2,53.3c-0.5,0-0.9,0.1-1.3,0.1c-2.2,0-4.3,0-6.5,0c-1.2,0-1.4-0.2-1-1.5c0.7-2,1.3-4,1.9-6
		c0.7-2.3,1.3-4.6,1.9-6.9c0.1-0.2,0.2-0.4,0.4-0.8C121.1,43.4,122.7,48.2,124.2,53.3z"/>
	<path class="st0" d="M262.8,54.9c0.1,3.4-0.9,6-3.2,8.3c-1.2,1.2-5.2,1.3-6.4,0.3c-3.3-2.8-3.9-6.5-3.2-10.5c0.3-1.4,0.9-2.8,1.7-4
		c2.2-3.5,7.3-3.3,9.5,0.2C262.4,51,263,53,262.8,54.9z"/>
	<path class="st0" d="M300.1,52.8c-1.6,0-3.2,0-4.8,0c-0.7,0-1.1-0.3-1-1c0.9-4,4.2-7.1,8.6-5c2,0.9,2.7,2.9,2.9,5
		c0.1,0.7-0.3,1-1,0.9C303.3,52.8,301.7,52.8,300.1,52.8z"/>
</g>
</svg>
