<svg xmlns="http://www.w3.org/2000/svg" viewBox="0 0 218.5 188.39">
  <defs>
    <style>
      .cls-1 {
        fill: none;
        stroke: #1d1d1b;
        stroke-miterlimit: 10;
        stroke-width: 5px;
      }
    </style>
  </defs>
  <g id="Calque_2" data-name="Calque 2">
    <g id="Calque_1-2" data-name="Calque 1">
      <path class="cls-1" d="M212,76c2.1,2.25-2.55,6.6-4.19,7,0,0-.07,31.06-19.68,57.51s-21.24,32.54-33.75,38.76c-16.56,8.24-23.54,6.39-45.12,6.39s-28.56,1.85-45.12-6.39C51.62,173.1,50,167,30.38,140.56S10.71,83.05,10.71,83.05c-1.65-.45-6.3-4.8-4.2-7C2.16,74.81,1.42,70.76,4,66.56c-2.24-3.74.3-9.59,5-9.59C8,56.53,8.76,49.18,16.4,49c0,0,8.94-12.31,24-12.72-1.66-6.22,1.52-8.57,1.52-8.57s.27-4.42,2.9-5.81C42.93,10,75.52,2.5,109.25,2.5S175.57,10,173.67,21.93c2.63,1.39,2.91,5.81,2.91,5.81s3.17,2.35,1.52,8.57c15.06.41,24,12.72,24,12.72,7.64.15,8.39,7.5,7.49,7.94,4.65,0,7.2,5.85,4.95,9.59C217.09,70.76,216.34,74.81,212,76Z"/>
      <path d="M111.13,151.39H55.9c-1.08,0-1.21-.12-1.24-1.14,0-.25,0-.49,0-.74V44.22c0-1.39.09-1.47,1.54-1.47h109.1c2.92,0,2.48,0,2.48,2.36q0,52.49,0,105c0,1.2-.12,1.32-1.34,1.32Zm50.18-25.74.22-.15V49.71c0-.73-.34-1.11-1.13-1.09H62c-1,0-1.17.14-1.19,1.12,0,.22,0,.44,0,.65v93.2c0,.25,0,.49,0,.74,0,1,.17,1.17,1.23,1.17h98.17c1,0,1.33-.26,1.34-1.24,0-2.34,0-4.68,0-7,0-1.05-.26-1.25-1.38-1.26-1.63,0-3.26.05-4.88,0a1.8,1.8,0,0,1-1.29-.65,14,14,0,0,1-.86-2.27c-.27-.71-.55-1.41-.85-2.11-.57-1.34-1.18-2.66-1.72-4s-1-2.85-1.6-4.26c-.85-2.16-1.73-4.31-2.6-6.47-.29-.7-.59-1.39-.89-2.08-.56-1.35-1.19-2.67-1.66-4s-.65-1.51-2.06-1.51c-9.79,0-19.59,0-29.38,0-1.53,0-2.83-.08-3.26,1.88a27.86,27.86,0,0,1-1.7,4.11c-.56,1.38-1,2.79-1.57,4.17s-1.21,2.72-1.76,4.1c-.78,1.93-1.49,3.88-2.24,5.82-.25.65-.53,1.3-.8,2-.58,1.37-1.22,2.71-1.72,4.11-.42,1.17-.52,1.32-1.82,1.32q-3.84,0-7.66,0a6.63,6.63,0,0,1-1.34,0c-.19,0-.48-.43-.44-.57.19-.59.49-1.14.73-1.71.58-1.34,1.16-2.68,1.71-4s1-2.73,1.59-4.07,1.2-2.66,1.76-4,1-2.64,1.53-3.94c.8-1.89,1.66-3.75,2.46-5.64.68-1.59,1.33-3.19,2-4.79.28-.7.54-1.41.82-2.11.52-1.34,1-2.67,1.58-4s1.2-2.77,1.78-4.17,1-2.67,1.6-4,1.17-2.62,1.71-4,1-2.68,1.56-4c1-2.42,2.09-4.82,3.1-7.24s2-4.92,3-7.38c.26-.65.54-1.3.82-1.95.57-1.34,1.16-2.68,1.71-4s1.08-2.72,1.63-4.07,1.15-2.8,1.78-4.18a1,1,0,0,1,.72-.57c3.28,0,6.56,0,9.85,0a.77.77,0,0,1,.86.68,19,19,0,0,0,.86,2.28c.56,1.31,1.17,2.61,1.73,3.93.66,1.54,1.29,3.09,1.92,4.64.29.7.56,1.41.83,2.11s.58,1.58.91,2.35c.56,1.32,1.18,2.61,1.72,3.93s1,2.78,1.62,4.16c.78,1.87,1.63,3.71,2.42,5.57.91,2.14,1.79,4.29,2.66,6.45.76,1.88,1.48,3.77,2.23,5.65.27.68.56,1.35.84,2,.58,1.37,1.18,2.74,1.75,4.11s1,2.63,1.55,3.93,1.2,2.6,1.74,3.92,1,2.68,1.54,4c.26.68.57,1.35.86,2,.56,1.32,1.16,2.62,1.7,3.95s1,2.63,1.52,3.93C160.75,125.38,161.09,125.49,161.31,125.65Zm-34.69-58-.24-.12-.15.39c-.69,1.64-1.39,3.28-2.07,4.92-.31.75-.55,1.53-.86,2.28-.57,1.37-1.21,2.72-1.76,4.1s-1,2.79-1.55,4.17c-.65,1.66-1.33,3.31-2,5l-.81,2c-.57,1.37-1.15,2.73-1.72,4.11-.64,1.54-1.24,3.1-1.9,4.63-.31.73-.07,1.18.75,1.17s1.51,0,2.27,0l22.21,0c.82,0,1-.39.68-1.11-.61-1.32-1.19-2.66-1.74-4s-1-2.78-1.56-4.17c-.24-.63-.51-1.25-.77-1.87-.57-1.34-1.15-2.68-1.71-4-.41-1-.79-1.95-1.18-2.93-.3-.75-.6-1.51-.89-2.27s-.57-1.63-.9-2.43c-.55-1.35-1.18-2.67-1.72-4s-1-2.84-1.6-4.24A16,16,0,0,0,126.62,67.62Z"/>
    </g>
  </g>
</svg>
