<svg id="Calque_1" data-name="Calque 1" xmlns="http://www.w3.org/2000/svg" viewBox="0 0 841.89 595.28">
  <defs>
    <style>
      .cls-1 {
        fill: #009355;
      }

      .cls-2 {
        fill: #161616;
      }

      .cls-3 {
        fill: #010101;
      }

      .cls-3, .cls-8 {
        stroke: #000;
      }

      .cls-11, .cls-12, .cls-13, .cls-3, .cls-8 {
        stroke-miterlimit: 10;
      }

      .cls-4 {
        fill: #fff;
      }

      .cls-5 {
        fill: #ededed;
      }

      .cls-6 {
        fill: #dadada;
      }

      .cls-7 {
        fill: #1d1d1b;
      }

      .cls-12, .cls-8 {
        fill: none;
      }

      .cls-9 {
        fill: #b2b2b2;
      }

      .cls-10 {
        fill: #9d9d9c;
      }

      .cls-11 {
        fill: #936032;
      }

      .cls-11, .cls-12, .cls-13 {
        stroke: #1d1d1b;
        stroke-width: 0.75px;
      }

      .cls-13 {
        fill: #cc9a32;
      }
    </style>
  </defs>
  <g>
    <path class="cls-1" d="M202,385.75V251.13c0-103.82,84.46-188.28,188.28-188.28s188.27,84.46,188.27,188.28V385.75Z"/>
    <path class="cls-2" d="M390.25,63.35C494,63.35,578,147.41,578,251.13V385.25H202.47V251.13A187.76,187.76,0,0,1,390.25,63.35m0-1A188.63,188.63,0,0,0,201.47,251.13V386.25H579V251.13A188.64,188.64,0,0,0,390.25,62.35Z"/>
  </g>
  <rect class="cls-3" x="344.78" y="374.08" width="294.64" height="23.52"/>
  <g>
    <g>
      <path class="cls-4" d="M396.21,338.07v68.39a9.21,9.21,0,0,1-18.41.47c0-.16,0-.32,0-.47l-.52-29,0-3.49,0-8.05-.14-27.8Z"/>
      <path class="cls-5" d="M396.21,306.13v31.94H377.07l.14,27.8,0,8.05h0l-.14-27.8-.3-59.11C388.63,291.5,396.21,298.39,396.21,306.13Z"/>
      <path class="cls-6" d="M378.08,430.62l.73,40.67H352.05V385.47h25.22l.38,21,.14,8.05c0,.15,0,.3,0,.47Z"/>
      <polygon class="cls-6" points="377.27 377.41 377.79 406.46 377.65 406.46 377.27 385.46 352.05 385.46 336.34 385.46 311.12 385.46 310.98 385.46 311.12 377.41 311.18 365.87 311.32 338.07 311.36 338.07 311.32 346.12 311.18 373.92 319.44 373.92 368.94 373.92 377.21 373.92 377.25 373.92 377.27 377.41"/>
      <path class="cls-6" d="M377.07,346.12l.14,27.8h-8.27V284.55a64.84,64.84,0,0,1,7.83,2.46Z"/>
      <polygon class="cls-5" points="343.3 428.4 343.3 520.6 339.24 520.6 322.57 520.6 311.61 520.6 311.61 471.29 336.34 471.29 336.34 385.46 352.05 385.46 352.05 471.29 376.78 471.29 376.78 520.6 365.82 520.6 349.15 520.6 345.29 520.6 345.29 428.4 345.09 428.4 343.3 428.4"/>
      <path class="cls-4" d="M369.61,245c2.31-.92,4.61,1.08,4.61,3.55,0,5.28-3.71,6.08-5.65,6a37.16,37.16,0,0,0,1-8.67c0-.3,0-.61,0-.91Z"/>
      <path class="cls-4" d="M369.59,245c0,.3,0,.61,0,.91a37.16,37.16,0,0,1-1,8.67,30.34,30.34,0,0,1-11.66,17.78v10h0v3.88a.12.12,0,0,1,0,.08.32.32,0,0,1,0,.19.17.17,0,0,1,0,.07,1.9,1.9,0,0,1-.13.38,2.1,2.1,0,0,1-.15.3,3.64,3.64,0,0,1-.44.57,3.39,3.39,0,0,1-.34.31,5.57,5.57,0,0,1-.72.53,1.9,1.9,0,0,1-.34.2c-.23.13-.47.26-.73.38l-.4.18-.58.23c-.53.18-1.11.37-1.73.52-.32.09-.66.17-1,.24l0,0c-.72.15-1.47.26-2.27.36-.59.07-1.21.13-1.82.17s-1.28.05-1.93.05h0c-.65,0-1.3,0-1.93-.05h0c-.62,0-1.22-.1-1.81-.17q-1.21-.13-2.28-.36c-.37-.08-.72-.17-1-.26-.62-.15-1.2-.34-1.73-.52l-.58-.23a3.52,3.52,0,0,1-.4-.18c-.26-.12-.5-.25-.73-.38a1.9,1.9,0,0,1-.34-.2,5,5,0,0,1-.72-.53,3.39,3.39,0,0,1-.34-.31,2.57,2.57,0,0,1-.44-.57,2.1,2.1,0,0,1-.15-.3,1.9,1.9,0,0,1-.13-.38.09.09,0,0,1,0-.07.33.33,0,0,1,0-.19.22.22,0,0,1,0-.08v-3.88h0v-10a30.34,30.34,0,0,1-11.66-17.78,37.16,37.16,0,0,1-1-8.67c0-.3,0-.61,0-.91a33.57,33.57,0,0,1,.59-5.82c0,12,5,19.7,12.38,25.3a20.19,20.19,0,0,0,12.39,4.43h.2c.22,0,.43,0,.65,0s.53,0,.79-.05l.74-.07a20.55,20.55,0,0,0,10.24-4.29c7.14-5.42,12.06-12.77,12.37-24.14A35.4,35.4,0,0,1,369.59,245Z"/>
      <path class="cls-7" d="M369.18,239.12v0c0,.39,0,.77,0,1.15-.05-.39-.11-.77-.19-1.15,0,12-5,19.7-12.39,25.3a20.8,20.8,0,0,1-10,4.29l-.74.07c-.26,0-.53,0-.79.05s-.43,0-.65,0h-.2a20.19,20.19,0,0,1-12.39-4.43c-7.38-5.6-12.38-13.28-12.38-25.3v0a32.89,32.89,0,0,1,3.44-9.81v1.28a1.4,1.4,0,0,0,.11.53,1.7,1.7,0,0,0,.32.52c1.38,1.65,5.91,3,12,3.68.73.09,1.49.15,2.26.21.2,0,.4,0,.6.05.85.07,1.71.12,2.61.14,1.11.05,2.25.08,3.43.08h.2c.67,0,1.33,0,2,0l1,0c1,0,1.93-.09,2.86-.15l.82-.07c8.54-.68,14.7-2.62,14.7-4.94v-1.28A33.75,33.75,0,0,1,369.18,239.12Z"/>
      <path class="cls-5" d="M368.94,284.55v89.37H319.45V284.55a91.68,91.68,0,0,1,12-2.24h0v3.79a.31.31,0,0,0,0,.09.22.22,0,0,0,0,.08.33.33,0,0,0,0,.19.09.09,0,0,0,0,.07,1.9,1.9,0,0,0,.13.38.71.71,0,0,0,.15.3,2.57,2.57,0,0,0,.44.57,3.39,3.39,0,0,0,.34.31,5,5,0,0,0,.72.53,1.9,1.9,0,0,0,.34.2c.23.13.47.26.73.38a3.52,3.52,0,0,0,.4.18l.58.23c.53.18,1.11.37,1.73.52a10.74,10.74,0,0,0,1,.26q1.07.23,2.28.36c.58.08,1.19.14,1.81.17h0c.63.05,1.26.06,1.92.06h.05c.64,0,1.29,0,1.92-.06s1.23-.09,1.82-.17c.8-.1,1.55-.21,2.27-.36l0,0c.35-.07.69-.15,1-.24.62-.15,1.2-.34,1.73-.52l.58-.23.4-.18c.26-.12.5-.25.73-.38a1.9,1.9,0,0,0,.34-.2,5.57,5.57,0,0,0,.72-.53,3.39,3.39,0,0,0,.34-.31,3.64,3.64,0,0,0,.44-.57.84.84,0,0,0,.15-.3,1.9,1.9,0,0,0,.13-.38.17.17,0,0,0,0-.07.32.32,0,0,0,0-.19.12.12,0,0,0,0-.08.31.31,0,0,0,0-.09v-3.79A91.53,91.53,0,0,1,368.94,284.55Z"/>
      <path class="cls-4" d="M366.71,521.51V531a.9.9,0,0,1-.89.91H349.15a.9.9,0,0,1-.91-.91v-9.5a.91.91,0,0,1,.91-.91h16.67A.91.91,0,0,1,366.71,521.51Z"/>
      <path class="cls-6" d="M365.54,224.82v5.77c0,2.3-6.06,4.24-14.5,4.94l-.82.07c-.93.06-1.88.11-2.86.15l-1,0c-.66,0-1.32,0-2,0h-.2c-1.18,0-2.32,0-3.43-.08l-2.61-.14c-.2,0-.4,0-.6-.05-.77-.06-1.53-.12-2.26-.21-6.07-.68-10.6-2-12-3.68a2.21,2.21,0,0,1-.32-.52,1.4,1.4,0,0,1-.11-.53v-5.77c0,.69.53,1.34,1.51,1.94,3.15,1.89,10.81,3.25,19.82,3.25h0c9,0,16.67-1.36,19.82-3.25C365,226.16,365.54,225.51,365.54,224.82Z"/>
      <path class="cls-6" d="M365.54,197.61v27.21c0,.69-.53,1.34-1.51,1.94-3.15,1.89-10.81,3.25-19.82,3.25h0c-9,0-16.67-1.36-19.82-3.25-1-.6-1.51-1.25-1.51-1.94V197.61a9.56,9.56,0,0,1,9.55-9.55,9,9,0,0,1,3.33.61,9.43,9.43,0,0,1,8.43-5.23h.06a9.45,9.45,0,0,1,8.44,5.23,9,9,0,0,1,3.33-.61A9.56,9.56,0,0,1,365.54,197.61Z"/>
      <path class="cls-4" d="M340.15,521.51V531a.9.9,0,0,1-.91.91H322.57a.9.9,0,0,1-.89-.91v-9.5a.91.91,0,0,1,.89-.91h16.67A.91.91,0,0,1,340.15,521.51Z"/>
      <path class="cls-6" d="M336.34,385.47v85.82H309.58l.73-40.67.28-15.64c0-.17,0-.32,0-.47l.52-29Z"/>
      <path class="cls-4" d="M319.82,254.55c-1.94,0-5.64-.75-5.64-6,0-2.47,2.3-4.47,4.61-3.55h0c0,.3,0,.61,0,.91A37.16,37.16,0,0,0,319.82,254.55Z"/>
      <path class="cls-6" d="M311.32,346.12l0-8.05.26-51.06a64.84,64.84,0,0,1,7.83-2.46v89.37h-8.27Z"/>
      <path class="cls-5" d="M311.62,287l-.26,51.06H292.18V306.13C292.18,298.39,299.76,291.5,311.62,287Z"/>
      <path class="cls-4" d="M311.32,338.07l-.14,27.8-.06,11.54-.14,8.06-.38,21c0,.15,0,.31,0,.47a9.21,9.21,0,0,1-18.41-.47V338.07Z"/>
    </g>
    <g>
      <path class="cls-8" d="M311.32,338.07l-.14,27.8-.06,11.54-.14,8.06-.38,21c0,.15,0,.31,0,.47a9.21,9.21,0,0,1-18.41-.47V338.07Z"/>
      <path class="cls-8" d="M292.18,338.07V306.13c0-7.74,7.58-14.63,19.44-19.12"/>
      <line class="cls-8" x1="311.42" y1="346.12" x2="311.32" y2="346.12"/>
      <path class="cls-8" d="M319.45,373.92h-8.27l.14-27.8,0-8.05.26-51.06a64.84,64.84,0,0,1,7.83-2.46"/>
      <path class="cls-8" d="M311.61,471.29h-2l.73-40.67.28-15.64c0-.17,0-.32,0-.47l.52-29h25.22"/>
      <line class="cls-8" x1="319.41" y1="241.38" x2="319.41" y2="241.35"/>
      <path class="cls-8" d="M318.79,245c-2.31-.92-4.61,1.08-4.61,3.55,0,5.28,3.7,6.08,5.64,6"/>
      <path class="cls-8" d="M339.24,520.6a.91.91,0,0,1,.91.91V531a.9.9,0,0,1-.91.91H322.57a.9.9,0,0,1-.89-.91v-9.5a.91.91,0,0,1,.89-.91"/>
      <path class="cls-8" d="M396.21,338.07v68.39a9.21,9.21,0,0,1-18.41.47c0-.16,0-.32,0-.47l-.52-29,0-3.49,0-8.05-.14-27.8Z"/>
      <line class="cls-8" x1="343.3" y1="428.4" x2="343.1" y2="428.4"/>
      <polyline class="cls-8" points="345.09 428.4 345.09 520.6 345.29 520.6"/>
      <path class="cls-8" d="M356.9,286.19a.31.31,0,0,0,0-.09v-3.79a91.53,91.53,0,0,1,12,2.24"/>
      <path class="cls-8" d="M356.57,287.21a.84.84,0,0,0,.15-.3"/>
      <path class="cls-8" d="M342.25,290.92c.63.05,1.26.06,1.92.06h.05c.64,0,1.29,0,1.92-.06s1.23-.09,1.82-.17"/>
      <path class="cls-8" d="M340.43,290.75c.58.08,1.19.14,1.81.17"/>
      <path class="cls-8" d="M337.1,290.13a10.74,10.74,0,0,0,1,.26"/>
      <path class="cls-8" d="M331.67,286.91a.71.71,0,0,0,.15.3"/>
      <path class="cls-8" d="M368.94,373.92H319.45V284.55a91.68,91.68,0,0,1,12-2.24h0v3.79a.31.31,0,0,0,0,.09"/>
      <path class="cls-8" d="M376.77,287c11.86,4.49,19.44,11.38,19.44,19.12v31.94"/>
      <line class="cls-8" x1="377.07" y1="346.12" x2="376.97" y2="346.12"/>
      <path class="cls-8" d="M377.21,373.92h-8.27V284.55a64.84,64.84,0,0,1,7.83,2.46l.3,59.11Z"/>
      <path class="cls-8" d="M352.05,385.47h25.22l.38,21,.14,8.05c0,.15,0,.3,0,.47l.28,15.64.73,40.67h-2"/>
      <path class="cls-8" d="M322.85,224.82V197.61a9.56,9.56,0,0,1,9.55-9.55,9,9,0,0,1,3.33.61,9.43,9.43,0,0,1,8.43-5.23h.06a9.45,9.45,0,0,1,8.44,5.23,9,9,0,0,1,3.33-.61,9.56,9.56,0,0,1,9.55,9.55v27.21"/>
      <path class="cls-8" d="M346.56,268.74a20.55,20.55,0,0,0,10.24-4.29c7.14-5.42,12.06-12.77,12.37-24.14a35.4,35.4,0,0,1,.42,4.66c0,.3,0,.61,0,.91a37.16,37.16,0,0,1-1,8.67,30.34,30.34,0,0,1-11.66,17.78v10h0v3.88a.12.12,0,0,1,0,.08.32.32,0,0,1,0,.19.17.17,0,0,1,0,.07,1.9,1.9,0,0,1-.13.38,2.1,2.1,0,0,1-.15.3,3.64,3.64,0,0,1-.44.57,3.39,3.39,0,0,1-.34.31,5.57,5.57,0,0,1-.72.53,1.9,1.9,0,0,1-.34.2c-.23.13-.47.26-.73.38l-.4.18-.58.23c-.53.18-1.11.37-1.73.52-.32.09-.66.17-1,.24l0,0c-.72.15-1.47.26-2.27.36-.59.07-1.21.13-1.82.17s-1.28.05-1.93.05h0c-.65,0-1.3,0-1.93-.05h0c-.62,0-1.22-.1-1.81-.17q-1.21-.13-2.28-.36c-.37-.08-.72-.17-1-.26-.62-.15-1.2-.34-1.73-.52l-.58-.23a3.52,3.52,0,0,1-.4-.18c-.26-.12-.5-.25-.73-.38a1.9,1.9,0,0,1-.34-.2,5,5,0,0,1-.72-.53,3.39,3.39,0,0,1-.34-.31,2.57,2.57,0,0,1-.44-.57,2.1,2.1,0,0,1-.15-.3,1.9,1.9,0,0,1-.13-.38.09.09,0,0,1,0-.07.33.33,0,0,1,0-.19.22.22,0,0,1,0-.08v-3.88h0v-10a30.34,30.34,0,0,1-11.66-17.78,37.16,37.16,0,0,1-1-8.67c0-.3,0-.61,0-.91a33.57,33.57,0,0,1,.59-5.82"/>
      <path class="cls-8" d="M338.12,235.58c.85.07,1.71.12,2.61.14"/>
      <path class="cls-8" d="M323,231.12a1.7,1.7,0,0,0,.32.52"/>
      <path class="cls-8" d="M351,235.53c8.54-.68,14.7-2.62,14.7-4.94v-1.28a33.75,33.75,0,0,1,3.44,9.81v0c0,.39,0,.77,0,1.15-.05-.39-.11-.77-.19-1.15,0,12-5,19.7-12.39,25.3a20.8,20.8,0,0,1-10,4.29l-.74.07c-.26,0-.53,0-.79.05s-.43,0-.65,0h-.2a20.19,20.19,0,0,1-12.39-4.43c-7.38-5.6-12.38-13.28-12.38-25.3v0a32.89,32.89,0,0,1,3.44-9.81"/>
      <path class="cls-8" d="M369.17,240.31h0"/>
      <line class="cls-8" x1="368.98" y1="241.35" x2="368.98" y2="241.38"/>
      <path class="cls-8" d="M365.54,224.82v5.77c0,2.3-6.06,4.24-14.5,4.94l-.82.07c-.93.06-1.88.11-2.86.15l-1,0c-.66,0-1.32,0-2,0h-.2c-1.18,0-2.32,0-3.43-.08l-2.61-.14c-.2,0-.4,0-.6-.05-.77-.06-1.53-.12-2.26-.21-6.07-.68-10.6-2-12-3.68a2.21,2.21,0,0,1-.32-.52,1.4,1.4,0,0,1-.11-.53v-5.77c0,.69.53,1.34,1.51,1.94,3.15,1.89,10.81,3.25,19.82,3.25h0c9,0,16.67-1.36,19.82-3.25C365,226.16,365.54,225.51,365.54,224.82Z"/>
      <path class="cls-8" d="M369.61,245c2.31-.92,4.61,1.08,4.61,3.55,0,5.28-3.71,6.08-5.65,6"/>
      <path class="cls-8" d="M365.82,520.6a.91.91,0,0,1,.89.91V531a.9.9,0,0,1-.89.91H349.15a.9.9,0,0,1-.91-.91v-9.5a.91.91,0,0,1,.91-.91"/>
      <polygon class="cls-8" points="376.78 471.29 376.78 520.6 365.82 520.6 349.15 520.6 345.29 520.6 345.29 428.4 345.09 428.4 343.3 428.4 343.3 520.6 339.24 520.6 322.57 520.6 311.61 520.6 311.61 471.29 336.34 471.29 336.34 385.46 352.05 385.46 352.05 471.29 376.78 471.29"/>
    </g>
  </g>
  <g>
    <g>
      <path class="cls-9" d="M510.39,344.78V376.5c0,3.54-9,6.41-20,6.41s-20-2.87-20-6.41V342.85c0,2.63,9,4.77,20,4.77,8.15,0,15.17-1.16,18.29-2.84Z"/>
      <path class="cls-4" d="M510.39,342.85v1.93h-1.73C509.77,344.19,510.39,343.54,510.39,342.85Z"/>
      <path class="cls-9" d="M510.39,342.85c0-.69-.61-1.35-1.72-1.94h29.6a1.18,1.18,0,0,1,1.08,1.66l-.44,1a2,2,0,0,1-1.84,1.19H510.39Z"/>
      <path class="cls-10" d="M510.39,342.85H470.34c0-2.65,9-4.78,20-4.78,8.16,0,15.19,1.16,18.3,2.84C509.78,341.5,510.39,342.16,510.39,342.85Z"/>
      <path class="cls-10" d="M470.34,342.85h40.05c0,.69-.62,1.34-1.73,1.93-3.12,1.68-10.14,2.84-18.29,2.84C479.31,347.62,470.34,345.48,470.34,342.85Z"/>
    </g>
    <g>
      <path class="cls-8" d="M510.39,344.78V376.5c0,3.54-9,6.41-20,6.41s-20-2.87-20-6.41V342.85"/>
      <path class="cls-8" d="M508.67,340.91h29.6a1.18,1.18,0,0,1,1.08,1.66l-.44,1a2,2,0,0,1-1.84,1.19H508.66"/>
      <path class="cls-8" d="M510.39,342.85c0,.69-.62,1.34-1.73,1.93-3.12,1.68-10.14,2.84-18.29,2.84-11.06,0-20-2.14-20-4.77s9-4.78,20-4.78c8.16,0,15.19,1.16,18.3,2.84C509.78,341.5,510.39,342.16,510.39,342.85Z"/>
    </g>
  </g>
  <g>
    <path class="cls-11" d="M456.63,362.56c.37.39-.44,1.15-.73,1.23a18.72,18.72,0,0,1-3.43,10c-3.42,4.61-3.7,5.67-5.89,6.76-2.88,1.43-4.1,1.11-7.87,1.11s-5,.32-7.87-1.11c-2.18-1.09-2.46-2.15-5.88-6.76a18.72,18.72,0,0,1-3.43-10c-.29-.08-1.1-.84-.74-1.23-.75-.21-.88-.92-.44-1.65a1.12,1.12,0,0,1,.86-1.67c-.15-.08,0-1.36,1.31-1.39a5.84,5.84,0,0,1,4.19-2.22c-.29-1.08.26-1.49.26-1.49s0-.77.51-1c-.33-2.08,5.35-3.39,11.23-3.39s11.57,1.31,11.24,3.39c.46.24.51,1,.51,1s.55.41.26,1.49a5.84,5.84,0,0,1,4.19,2.22c1.33,0,1.46,1.31,1.3,1.39a1.12,1.12,0,0,1,.87,1.67C457.52,361.64,457.39,362.35,456.63,362.56Z"/>
    <path class="cls-12" d="M441.93,366a.73.73,0,0,1,.06.3c0,.54-.59,1-1.31,1a1.52,1.52,0,0,1-.92-.28,1.49,1.49,0,0,1-1.05.4,1.64,1.64,0,0,0-1.57,0,1.62,1.62,0,0,1-.84-.23,1.75,1.75,0,0,1-.62.11,1.58,1.58,0,0,1-.91-.27,1.75,1.75,0,0,1-.4.05c-.73,0-1.31-.44-1.31-1V366"/>
    <path class="cls-12" d="M454.25,364.14a1.2,1.2,0,0,1-.47.48,1.15,1.15,0,0,1-1,.08,1.83,1.83,0,0,1-1.3.48,2,2,0,0,1-1-.26,1.47,1.47,0,0,1-1.56,1,1.91,1.91,0,0,1-1.21-.39,1.46,1.46,0,0,1-1.28.58,2,2,0,0,1-.56-.08c0,.59-.88,1.07-1.92,1.07s-1.85,0-2-1"/>
    <path class="cls-12" d="M426,364.93a1.25,1.25,0,0,0,1.3.86,1.49,1.49,0,0,0,1.07-.41,1.21,1.21,0,0,0,1.31.93,1.61,1.61,0,0,0,.83-.23,1.3,1.3,0,0,0,1.25.7c.64,0,1.19-.25,1.32-.7"/>
    <path class="cls-12" d="M430,356.24a1.24,1.24,0,0,0,1.3.86,1.49,1.49,0,0,0,1.07-.41,1.2,1.2,0,0,0,1.3.93,1.62,1.62,0,0,0,.84-.23,1.3,1.3,0,0,0,1.25.7c.64,0,1.19-.25,1.31-.7"/>
    <path class="cls-12" d="M442.55,357.1a.37.37,0,0,1,0,.18.73.73,0,0,1-.8.61,1,1,0,0,1-.57-.18.89.89,0,0,1-.64.25.93.93,0,0,1-.48-.13,1,1,0,0,1-.49.13,1,1,0,0,1-.51-.15,1,1,0,0,1-.38.08,1,1,0,0,1-.56-.17,1,1,0,0,1-.25,0c-.45,0-.81-.27-.81-.61,0,0,0,0,0-.05"/>
    <path class="cls-12" d="M449.83,356.24a.68.68,0,0,1-.63.05,1.12,1.12,0,0,1-.8.3,1.24,1.24,0,0,1-.62-.16.89.89,0,0,1-.95.6,1.14,1.14,0,0,1-.74-.25.91.91,0,0,1-.79.36,1.21,1.21,0,0,1-.34-.05c0,.37-.55.66-1.19.66s-1.13,0-1.2-.62"/>
    <path class="cls-12" d="M426,364.49a1.69,1.69,0,0,1-1,.31,1.61,1.61,0,0,1-1.15-.41h-.16c-.72,0-1.31-.35-1.31-.78"/>
    <path class="cls-13" d="M429.89,356.16a1,1,0,0,1-.61.13.92.92,0,0,1-.65-.28h-.09c-.42,0-.74-.25-.72-.5h0"/>
    <path class="cls-13" d="M448.69,353.81h0"/>
    <ellipse class="cls-11" cx="438.92" cy="352.05" rx="5.36" ry="0.6"/>
  </g>
</svg>
