<svg id="Calque_1" data-name="Calque 1" xmlns="http://www.w3.org/2000/svg" viewBox="0 0 438.45 470.07">
  <defs>
    <style>
      .cls-1 {
        fill: #009355;
      }

      .cls-2 {
        fill: #161616;
      }

      .cls-3 {
        fill: #010101;
      }

      .cls-3, .cls-5, .cls-6 {
        stroke: #000;
      }

      .cls-3, .cls-5, .cls-6, .cls-7 {
        stroke-miterlimit: 10;
      }

      .cls-4, .cls-6 {
        fill: #fff;
      }

      .cls-5, .cls-7 {
        fill: none;
      }

      .cls-7 {
        stroke: #161616;
      }
    </style>
  </defs>
  <g>
    <path class="cls-1" d="M232.48,385.75V251.13c0-103.82,84.46-188.28,188.28-188.28S609,147.31,609,251.13V385.75Z" transform="translate(-231.98 -62.35)"/>
    <path class="cls-2" d="M420.76,63.35c103.7,0,187.77,84.06,187.77,187.78V385.25H233V251.13A187.76,187.76,0,0,1,420.76,63.35m0-1A188.63,188.63,0,0,0,232,251.13V386.25H609.53V251.13A188.63,188.63,0,0,0,420.76,62.35Z" transform="translate(-231.98 -62.35)"/>
  </g>
  <rect class="cls-3" x="143.3" y="311.73" width="294.64" height="23.52"/>
  <g>
    <g>
      <path class="cls-4" d="M426.73,338.07v68.39a9.21,9.21,0,0,1-18.41.47,3.77,3.77,0,0,1,0-.47l-.51-29,0-3.49,0-8.05-.14-27.8Z" transform="translate(-231.98 -62.35)"/>
      <path class="cls-4" d="M426.73,306.13v31.94H407.58l.14,27.8,0,8.05h0l-.14-27.8-.3-59.11C419.14,291.5,426.73,298.39,426.73,306.13Z" transform="translate(-231.98 -62.35)"/>
      <path class="cls-4" d="M408.59,430.62l.73,40.67H382.56V385.47h25.23l.37,21,.14,8.05a3.86,3.86,0,0,0,0,.47Z" transform="translate(-231.98 -62.35)"/>
      <polygon class="cls-4" points="175.8 315.06 176.32 344.11 176.18 344.11 175.8 323.11 150.57 323.11 134.87 323.11 109.64 323.11 109.51 323.11 109.64 315.06 109.71 303.52 109.85 275.72 109.88 275.72 109.85 283.77 109.71 311.57 117.97 311.57 167.47 311.57 175.74 311.57 175.78 311.57 175.8 315.06"/>
      <path class="cls-4" d="M407.58,346.12l.14,27.8h-8.26V284.55a65.24,65.24,0,0,1,7.82,2.46Z" transform="translate(-231.98 -62.35)"/>
      <polygon class="cls-4" points="141.83 366.05 141.83 458.25 137.77 458.25 121.1 458.25 110.14 458.25 110.14 408.94 134.87 408.94 134.87 323.11 150.57 323.11 150.57 408.94 175.31 408.94 175.31 458.25 164.35 458.25 147.68 458.25 143.82 458.25 143.82 366.05 143.62 366.05 141.83 366.05"/>
      <path class="cls-4" d="M400.12,245c2.31-.92,4.62,1.08,4.62,3.55,0,5.28-3.72,6.08-5.66,6a36.63,36.63,0,0,0,1-8.67c0-.3,0-.61,0-.91Z" transform="translate(-231.98 -62.35)"/>
      <path class="cls-4" d="M400.1,245c0,.3,0,.61,0,.91a36.63,36.63,0,0,1-1,8.67,30.34,30.34,0,0,1-11.66,17.78v10h0v3.88a.22.22,0,0,1,0,.08.33.33,0,0,1,0,.19.17.17,0,0,1,0,.07,1.43,1.43,0,0,1-.13.38,1.05,1.05,0,0,1-.15.3,3.12,3.12,0,0,1-.44.57,2.56,2.56,0,0,1-.34.31,4.47,4.47,0,0,1-.72.53,1.9,1.9,0,0,1-.34.2,7.06,7.06,0,0,1-.73.38l-.4.18-.58.23c-.53.18-1.11.37-1.73.52-.31.09-.65.17-1,.24l-.05,0c-.71.15-1.47.26-2.26.36-.6.07-1.21.13-1.83.17s-1.27.05-1.93.05h0c-.65,0-1.29,0-1.92-.05h0c-.61,0-1.22-.1-1.81-.17-.81-.09-1.56-.21-2.28-.36-.37-.08-.72-.17-1.05-.26-.61-.15-1.19-.34-1.72-.52l-.58-.23a3,3,0,0,1-.41-.18c-.26-.12-.5-.25-.73-.38a3,3,0,0,1-.34-.2,5.57,5.57,0,0,1-.72-.53,3.39,3.39,0,0,1-.34-.31,3.35,3.35,0,0,1-.44-.57,2.1,2.1,0,0,1-.15-.3,1.39,1.39,0,0,1-.12-.38.07.07,0,0,1,0-.07.43.43,0,0,1,0-.19.22.22,0,0,1,0-.08v-3.88h0v-10a30.28,30.28,0,0,1-11.65-17.78,36.63,36.63,0,0,1-1-8.67c0-.3,0-.61,0-.91a35.64,35.64,0,0,1,.59-5.82c0,12,5,19.7,12.39,25.3a20.14,20.14,0,0,0,12.38,4.43h.21c.21,0,.42,0,.64,0s.53,0,.79-.05l.75-.07a20.56,20.56,0,0,0,10.23-4.29c7.14-5.42,12.06-12.77,12.37-24.14A35.4,35.4,0,0,1,400.1,245Z" transform="translate(-231.98 -62.35)"/>
      <path class="cls-4" d="M399.7,239.12v0c0,.39,0,.77,0,1.15-.05-.39-.11-.77-.19-1.15,0,12-5,19.7-12.38,25.3a20.84,20.84,0,0,1-10,4.29l-.75.07c-.26,0-.53,0-.79.05s-.43,0-.64,0h-.21a20.14,20.14,0,0,1-12.38-4.43c-7.39-5.6-12.39-13.28-12.39-25.3v0a33.17,33.17,0,0,1,3.44-9.81v1.28a1.4,1.4,0,0,0,.11.53,1.93,1.93,0,0,0,.32.52c1.39,1.65,5.91,3,12,3.68.73.09,1.49.15,2.26.21.2,0,.4,0,.6.05.85.07,1.72.12,2.61.14,1.11.05,2.26.08,3.43.08h.2c.67,0,1.34,0,2,0l1,0c1,0,1.93-.09,2.86-.15l.82-.07c8.54-.68,14.71-2.62,14.71-4.94v-1.28A33.75,33.75,0,0,1,399.7,239.12Z" transform="translate(-231.98 -62.35)"/>
      <path class="cls-4" d="M399.46,284.55v89.37H350V284.55a92,92,0,0,1,12-2.24h0v3.79a.16.16,0,0,0,0,.09.22.22,0,0,0,0,.08.43.43,0,0,0,0,.19.07.07,0,0,0,0,.07,1.39,1.39,0,0,0,.12.38,1.05,1.05,0,0,0,.15.3,3.35,3.35,0,0,0,.44.57,3.39,3.39,0,0,0,.34.31,5.57,5.57,0,0,0,.72.53,3,3,0,0,0,.34.2c.23.13.47.26.73.38a3,3,0,0,0,.41.18l.58.23c.53.18,1.11.37,1.72.52a10.74,10.74,0,0,0,1.05.26c.72.15,1.47.27,2.28.36.58.08,1.2.14,1.81.17h0c.63.05,1.26.06,1.91.06h.05c.65,0,1.29,0,1.92-.06s1.23-.09,1.83-.17c.79-.1,1.55-.21,2.26-.36l.05,0c.36-.07.7-.15,1-.24.62-.15,1.2-.34,1.73-.52l.58-.23.4-.18a7.06,7.06,0,0,0,.73-.38,1.9,1.9,0,0,0,.34-.2,4.47,4.47,0,0,0,.72-.53,2.56,2.56,0,0,0,.34-.31,3.12,3.12,0,0,0,.44-.57.71.71,0,0,0,.15-.3,1.43,1.43,0,0,0,.13-.38.17.17,0,0,0,0-.07.33.33,0,0,0,0-.19.22.22,0,0,0,0-.08.31.31,0,0,0,0-.09v-3.79A92,92,0,0,1,399.46,284.55Z" transform="translate(-231.98 -62.35)"/>
      <path class="cls-4" d="M397.23,521.51V531a.9.9,0,0,1-.9.91H379.66a.91.91,0,0,1-.91-.91v-9.5a.92.92,0,0,1,.91-.91h16.67A.92.92,0,0,1,397.23,521.51Z" transform="translate(-231.98 -62.35)"/>
      <path class="cls-4" d="M396.05,224.82v5.77c0,2.3-6.06,4.24-14.5,4.94l-.82.07c-.93.06-1.88.11-2.86.15l-1,0c-.65,0-1.32,0-2,0h-.2c-1.17,0-2.32,0-3.43-.08l-2.61-.14c-.2,0-.4,0-.6-.05-.77-.06-1.53-.12-2.26-.21-6.07-.68-10.59-2-12-3.68a2.21,2.21,0,0,1-.32-.52,1.4,1.4,0,0,1-.11-.53v-5.77c0,.69.53,1.34,1.51,1.94,3.15,1.89,10.81,3.25,19.82,3.25h0c9,0,16.67-1.36,19.82-3.25C395.53,226.16,396.05,225.51,396.05,224.82Z" transform="translate(-231.98 -62.35)"/>
      <path class="cls-4" d="M396.05,197.61v27.21c0,.69-.52,1.34-1.51,1.94-3.15,1.89-10.81,3.25-19.82,3.25h0c-9,0-16.67-1.36-19.82-3.25-1-.6-1.51-1.25-1.51-1.94V197.61a9.56,9.56,0,0,1,9.55-9.55,8.92,8.92,0,0,1,3.33.61,9.44,9.44,0,0,1,8.43-5.23h.06a9.46,9.46,0,0,1,8.45,5.23,8.9,8.9,0,0,1,3.32-.61A9.56,9.56,0,0,1,396.05,197.61Z" transform="translate(-231.98 -62.35)"/>
      <path class="cls-4" d="M370.66,521.51V531a.9.9,0,0,1-.9.91H353.08a.9.9,0,0,1-.89-.91v-9.5a.91.91,0,0,1,.89-.91h16.68A.91.91,0,0,1,370.66,521.51Z" transform="translate(-231.98 -62.35)"/>
      <path class="cls-4" d="M366.86,385.47v85.82H340.09l.73-40.67L341.1,415c0-.17,0-.32,0-.47l.52-29Z" transform="translate(-231.98 -62.35)"/>
      <path class="cls-4" d="M350.34,254.55c-1.94,0-5.65-.75-5.65-6,0-2.47,2.31-4.47,4.61-3.55h0c0,.3,0,.61,0,.91A36.63,36.63,0,0,0,350.34,254.55Z" transform="translate(-231.98 -62.35)"/>
      <path class="cls-4" d="M341.83,346.12l0-8.05.26-51.06a65.41,65.41,0,0,1,7.83-2.46v89.37h-8.27Z" transform="translate(-231.98 -62.35)"/>
      <path class="cls-4" d="M342.13,287l-.26,51.06H322.69V306.13C322.69,298.39,330.27,291.5,342.13,287Z" transform="translate(-231.98 -62.35)"/>
      <path class="cls-4" d="M341.83,338.07l-.14,27.8-.06,11.54-.14,8.06-.38,21c0,.15,0,.31,0,.47a9.21,9.21,0,0,1-18.41-.47V338.07Z" transform="translate(-231.98 -62.35)"/>
    </g>
    <g>
      <path class="cls-5" d="M341.83,338.07l-.14,27.8-.06,11.54-.14,8.06-.38,21c0,.15,0,.31,0,.47a9.21,9.21,0,0,1-18.41-.47V338.07Z" transform="translate(-231.98 -62.35)"/>
      <path class="cls-5" d="M322.69,338.07V306.13c0-7.74,7.58-14.63,19.44-19.12" transform="translate(-231.98 -62.35)"/>
      <line class="cls-5" x1="109.95" y1="283.77" x2="109.85" y2="283.77"/>
      <path class="cls-5" d="M350,373.92h-8.27l.14-27.8,0-8.05.26-51.06a65.41,65.41,0,0,1,7.83-2.46" transform="translate(-231.98 -62.35)"/>
      <path class="cls-5" d="M342.12,471.29h-2l.73-40.67L341.1,415c0-.17,0-.32,0-.47l.52-29h25.23" transform="translate(-231.98 -62.35)"/>
      <line class="cls-5" x1="117.94" y1="179.03" x2="117.94" y2="179"/>
      <path class="cls-5" d="M349.3,245c-2.3-.92-4.61,1.08-4.61,3.55,0,5.28,3.71,6.08,5.65,6" transform="translate(-231.98 -62.35)"/>
      <path class="cls-5" d="M369.76,520.6a.91.91,0,0,1,.9.91V531a.9.9,0,0,1-.9.91H353.08a.9.9,0,0,1-.89-.91v-9.5a.91.91,0,0,1,.89-.91" transform="translate(-231.98 -62.35)"/>
      <path class="cls-5" d="M426.73,338.07v68.39a9.21,9.21,0,0,1-18.41.47,3.77,3.77,0,0,1,0-.47l-.51-29,0-3.49,0-8.05-.14-27.8Z" transform="translate(-231.98 -62.35)"/>
      <line class="cls-5" x1="141.83" y1="366.05" x2="141.63" y2="366.05"/>
      <polyline class="cls-5" points="143.62 366.05 143.62 458.25 143.82 458.25"/>
      <path class="cls-5" d="M387.41,286.19a.31.31,0,0,0,0-.09v-3.79a92,92,0,0,1,12,2.24" transform="translate(-231.98 -62.35)"/>
      <path class="cls-5" d="M387.08,287.21a.71.71,0,0,0,.15-.3" transform="translate(-231.98 -62.35)"/>
      <path class="cls-5" d="M372.77,290.92c.63.05,1.26.06,1.91.06h.05c.65,0,1.29,0,1.92-.06s1.23-.09,1.83-.17" transform="translate(-231.98 -62.35)"/>
      <path class="cls-5" d="M370.94,290.75c.58.08,1.2.14,1.81.17" transform="translate(-231.98 -62.35)"/>
      <path class="cls-5" d="M367.61,290.13a10.74,10.74,0,0,0,1.05.26" transform="translate(-231.98 -62.35)"/>
      <path class="cls-5" d="M362.18,286.91a1.05,1.05,0,0,0,.15.3" transform="translate(-231.98 -62.35)"/>
      <path class="cls-5" d="M399.46,373.92H350V284.55a92,92,0,0,1,12-2.24h0v3.79a.16.16,0,0,0,0,.09" transform="translate(-231.98 -62.35)"/>
      <path class="cls-5" d="M407.28,287c11.86,4.49,19.45,11.38,19.45,19.12v31.94" transform="translate(-231.98 -62.35)"/>
      <line class="cls-5" x1="175.6" y1="283.77" x2="175.5" y2="283.77"/>
      <path class="cls-5" d="M407.72,373.92h-8.26V284.55a65.24,65.24,0,0,1,7.82,2.46l.3,59.11Z" transform="translate(-231.98 -62.35)"/>
      <path class="cls-5" d="M382.56,385.47h25.23l.37,21,.14,8.05a3.86,3.86,0,0,0,0,.47l.27,15.64.73,40.67h-2" transform="translate(-231.98 -62.35)"/>
      <path class="cls-5" d="M353.36,224.82V197.61a9.56,9.56,0,0,1,9.55-9.55,8.92,8.92,0,0,1,3.33.61,9.44,9.44,0,0,1,8.43-5.23h.06a9.46,9.46,0,0,1,8.45,5.23,8.9,8.9,0,0,1,3.32-.61,9.56,9.56,0,0,1,9.55,9.55v27.21" transform="translate(-231.98 -62.35)"/>
      <path class="cls-5" d="M377.08,268.74a20.56,20.56,0,0,0,10.23-4.29c7.14-5.42,12.06-12.77,12.37-24.14a35.4,35.4,0,0,1,.42,4.66c0,.3,0,.61,0,.91a36.63,36.63,0,0,1-1,8.67,30.34,30.34,0,0,1-11.66,17.78v10h0v3.88a.22.22,0,0,1,0,.08.33.33,0,0,1,0,.19.17.17,0,0,1,0,.07,1.43,1.43,0,0,1-.13.38,1.05,1.05,0,0,1-.15.3,3.12,3.12,0,0,1-.44.57,2.56,2.56,0,0,1-.34.31,4.47,4.47,0,0,1-.72.53,1.9,1.9,0,0,1-.34.2,7.06,7.06,0,0,1-.73.38l-.4.18-.58.23c-.53.18-1.11.37-1.73.52-.31.09-.65.17-1,.24l-.05,0c-.71.15-1.47.26-2.26.36-.6.07-1.21.13-1.83.17s-1.27.05-1.93.05h0c-.65,0-1.29,0-1.92-.05h0c-.61,0-1.22-.1-1.81-.17-.81-.09-1.56-.21-2.28-.36-.37-.08-.72-.17-1.05-.26-.61-.15-1.19-.34-1.72-.52l-.58-.23a3,3,0,0,1-.41-.18c-.26-.12-.5-.25-.73-.38a3,3,0,0,1-.34-.2,5.57,5.57,0,0,1-.72-.53,3.39,3.39,0,0,1-.34-.31,3.35,3.35,0,0,1-.44-.57,2.1,2.1,0,0,1-.15-.3,1.39,1.39,0,0,1-.12-.38.07.07,0,0,1,0-.07.43.43,0,0,1,0-.19.22.22,0,0,1,0-.08v-3.88h0v-10a30.28,30.28,0,0,1-11.65-17.78,36.63,36.63,0,0,1-1-8.67c0-.3,0-.61,0-.91a35.64,35.64,0,0,1,.59-5.82" transform="translate(-231.98 -62.35)"/>
      <path class="cls-5" d="M368.63,235.58c.85.07,1.72.12,2.61.14" transform="translate(-231.98 -62.35)"/>
      <path class="cls-5" d="M353.47,231.12a1.93,1.93,0,0,0,.32.52" transform="translate(-231.98 -62.35)"/>
      <path class="cls-5" d="M381.55,235.53c8.54-.68,14.71-2.62,14.71-4.94v-1.28a33.75,33.75,0,0,1,3.44,9.81v0c0,.39,0,.77,0,1.15-.05-.39-.11-.77-.19-1.15,0,12-5,19.7-12.38,25.3a20.84,20.84,0,0,1-10,4.29l-.75.07c-.26,0-.53,0-.79.05s-.43,0-.64,0h-.21a20.14,20.14,0,0,1-12.38-4.43c-7.39-5.6-12.39-13.28-12.39-25.3v0a33.17,33.17,0,0,1,3.44-9.81" transform="translate(-231.98 -62.35)"/>
      <path class="cls-5" d="M399.68,240.31h0" transform="translate(-231.98 -62.35)"/>
      <line class="cls-5" x1="167.51" y1="179" x2="167.51" y2="179.03"/>
      <path class="cls-5" d="M396.05,224.82v5.77c0,2.3-6.06,4.24-14.5,4.94l-.82.07c-.93.06-1.88.11-2.86.15l-1,0c-.65,0-1.32,0-2,0h-.2c-1.17,0-2.32,0-3.43-.08l-2.61-.14c-.2,0-.4,0-.6-.05-.77-.06-1.53-.12-2.26-.21-6.07-.68-10.59-2-12-3.68a2.21,2.21,0,0,1-.32-.52,1.4,1.4,0,0,1-.11-.53v-5.77c0,.69.53,1.34,1.51,1.94,3.15,1.89,10.81,3.25,19.82,3.25h0c9,0,16.67-1.36,19.82-3.25C395.53,226.16,396.05,225.51,396.05,224.82Z" transform="translate(-231.98 -62.35)"/>
      <path class="cls-5" d="M400.12,245c2.31-.92,4.62,1.08,4.62,3.55,0,5.28-3.72,6.08-5.66,6" transform="translate(-231.98 -62.35)"/>
      <path class="cls-5" d="M396.33,520.6a.92.92,0,0,1,.9.91V531a.9.9,0,0,1-.9.91H379.66a.91.91,0,0,1-.91-.91v-9.5a.92.92,0,0,1,.91-.91" transform="translate(-231.98 -62.35)"/>
      <polygon class="cls-5" points="175.31 408.94 175.31 458.25 164.35 458.25 147.68 458.25 143.82 458.25 143.82 366.05 143.62 366.05 141.83 366.05 141.83 458.25 137.77 458.25 121.1 458.25 110.14 458.25 110.14 408.94 134.87 408.94 134.87 323.11 150.57 323.11 150.57 408.94 175.31 408.94"/>
    </g>
  </g>
  <g>
    <path class="cls-6" d="M484.37,357.27c0,.53-.48,1-1.34,1.49-2.4,1.3-7.81,2.19-14.1,2.19-8.53,0-15.44-1.65-15.44-3.68s6.91-3.68,15.44-3.68c6.29,0,11.71.89,14.11,2.19C483.89,356.23,484.37,356.74,484.37,357.27Z" transform="translate(-231.98 -62.35)"/>
    <path class="cls-6" d="M484.37,357.27v19.34c0,2-6.91,3.69-15.44,3.69s-15.44-1.66-15.44-3.69V357.27c0,2,6.91,3.68,15.44,3.68,6.29,0,11.7-.89,14.1-2.19C483.89,358.31,484.37,357.8,484.37,357.27Z" transform="translate(-231.98 -62.35)"/>
    <path class="cls-6" d="M506.7,357.06l-.35.78a1.54,1.54,0,0,1-1.41.92H483c.86-.45,1.34-1,1.34-1.49s-.48-1-1.33-1.49h22.82A.92.92,0,0,1,506.7,357.06Z" transform="translate(-231.98 -62.35)"/>
  </g>
  <g>
    <path class="cls-6" d="M542.52,350.4v26c0,2.73-6.91,4.94-15.44,4.94s-15.44-2.21-15.44-4.94v-26" transform="translate(-231.98 -62.35)"/>
    <path class="cls-6" d="M564.85,350.19l-.35.78a1.53,1.53,0,0,1-1.41.92H541.18c.86-.45,1.34-1,1.34-1.49s-.48-1-1.33-1.49H564A.92.92,0,0,1,564.85,350.19Z" transform="translate(-231.98 -62.35)"/>
    <path class="cls-6" d="M542.52,350.4c0,.53-.48,1-1.34,1.49-2.4,1.3-7.81,2.19-14.1,2.19-8.53,0-15.44-1.65-15.44-3.68s6.91-3.68,15.44-3.68c6.29,0,11.71.89,14.11,2.19C542,349.36,542.52,349.87,542.52,350.4Z" transform="translate(-231.98 -62.35)"/>
  </g>
  <g>
    <rect class="cls-5" x="242.41" y="135.01" width="74.5" height="24.83"/>
    <path class="cls-7" d="M488.48,222.19a8.25,8.25,0,0,1,5.46-2.47c-.43-1.6.39-2.2.39-2.2s.07-1.14.74-1.49c-.49-3.07,7.89-5,16.57-5s17.05,1.93,16.57,5c.67.35.74,1.49.74,1.49s.82.6.39,2.2a8.25,8.25,0,0,1,5.46,2.47Z" transform="translate(-231.98 -62.35)"/>
  </g>
  <g>
    <rect class="cls-5" x="242.41" y="169.85" width="74.5" height="24.84"/>
    <path class="cls-7" d="M538.06,239.94c.54.58-.66,1.7-1.08,1.81a27.62,27.62,0,0,1-5.06,14.79l-.37.5H491.73l-.37-.5a27.52,27.52,0,0,1-5.06-14.79c-.43-.11-1.62-1.23-1.08-1.81-1.12-.31-1.31-1.35-.66-2.43a1.65,1.65,0,0,1,1.27-2.46c-.23-.12,0-2,1.93-2.05a6.52,6.52,0,0,1,.71-.8h46.34a6.52,6.52,0,0,1,.71.8c2,0,2.15,1.93,1.92,2.05a1.65,1.65,0,0,1,1.28,2.46C539.37,238.59,539.18,239.63,538.06,239.94Z" transform="translate(-231.98 -62.35)"/>
  </g>
  <g>
    <rect class="cls-5" x="242.41" y="204.69" width="74.5" height="24.83"/>
    <path class="cls-7" d="M531.55,267.05c-4.69,6.38-5.17,7.91-8.31,9.47-4.26,2.12-6,1.64-11.6,1.64s-7.35.48-11.6-1.64c-3.14-1.56-3.62-3.09-8.31-9.47Z" transform="translate(-231.98 -62.35)"/>
  </g>
</svg>
