<svg id="Calque_1" data-name="Calque 1" xmlns="http://www.w3.org/2000/svg" viewBox="0 0 430.25 119.84">
  <defs>
    <style>
      .cls-1 {
        fill: #9c9f98;
      }

      .cls-2 {
        fill: #008bb4;
      }
    </style>
  </defs>
  <g>
    <path class="cls-1" d="M44.4,60.49a4.31,4.31,0,0,1-1.2,3,4.12,4.12,0,0,1-3,1.25H4.27a4.26,4.26,0,0,1-3-1.25,4.22,4.22,0,0,1-1.25-3V4.27a4.19,4.19,0,0,1,1.25-3A4.22,4.22,0,0,1,4.27,0h36a4.08,4.08,0,0,1,3,1.25,4.27,4.27,0,0,1,1.2,3v.47a4.29,4.29,0,0,1-1.2,3.1,4.13,4.13,0,0,1-3,1.17H12.71a2.85,2.85,0,0,0-1.91.76,2.57,2.57,0,0,0-.84,1.9V25.14a2.71,2.71,0,0,0,.84,1.94,2.77,2.77,0,0,0,1.91.81H32.25a4.27,4.27,0,1,1,0,8.54H12.71a2.81,2.81,0,0,0-1.91.76A2.55,2.55,0,0,0,10,39.08v14A2.57,2.57,0,0,0,10.8,55a2.81,2.81,0,0,0,1.91.76H40.22a4.12,4.12,0,0,1,3,1.25,4.31,4.31,0,0,1,1.2,3v.48Z"/>
    <path class="cls-1" d="M108.8,58.56A6.09,6.09,0,0,1,114,55.74h2.09A4.23,4.23,0,0,1,120.38,60v55.66a4.23,4.23,0,0,1-4.27,4.22h-1.52a4.15,4.15,0,0,1-4.17-4.22V79.91c0-3.66.19-4.69.19-5.53s-.29-1.41-.86-1.41c-1,0-1.23,1.5-4,5.53l-5.6,8.26c-1.42,2.15-3.41,4.69-7.3,4.69H90c-3.89,0-5.88-2.54-7.3-4.69l-5.6-8.26c-2.75-4-2.94-5.53-4-5.53-.57,0-.86.47-.86,1.41s.19,1.87.19,5.53v35.71a4.15,4.15,0,0,1-4.17,4.22H66.78a4.23,4.23,0,0,1-4.27-4.22V60a4.23,4.23,0,0,1,4.27-4.22h2.09a6.06,6.06,0,0,1,5.21,2.82L88.41,79.63c1.61,2.53,2,3.85,3,3.85s1.43-1.32,3-3.85Z"/>
    <path class="cls-2" d="M116.18,0H59.88a4.25,4.25,0,0,0-4.26,4.27V5.79A4.16,4.16,0,0,0,59.88,10h13.7a2.91,2.91,0,0,1,2.85,2.75V26.65a22,22,0,1,0,44,0V4.27A4.26,4.26,0,0,0,116.18,0M97.77,38.8A12.21,12.21,0,0,1,85.44,26.65V12.71A2.89,2.89,0,0,1,88.19,10h20.59a2.73,2.73,0,0,1,2.65,2.75V26.65A12.21,12.21,0,0,1,99.1,38.8Z"/>
    <path class="cls-1" d="M170,28.92a.57.57,0,0,0,.65-.65,1.27,1.27,0,0,0,0-.35,4.29,4.29,0,0,0-8.33,0,1.27,1.27,0,0,0,0,.35.57.57,0,0,0,.65.65Zm-2.55-15.28a1.94,1.94,0,0,1,.93-.27,2,2,0,0,1,1.62.93l.1.14a1.63,1.63,0,0,1,.34,1.06,1.89,1.89,0,0,1-1,1.65l-5,2.31a2.14,2.14,0,0,1-.89.24,1.36,1.36,0,0,1-1.24-.83,1.71,1.71,0,0,1-.24-.82,1.5,1.5,0,0,1,.79-1.31Zm-1,26.81a7.92,7.92,0,0,1-7.6-5.54,10.17,10.17,0,0,1-.38-3.24V30.16a10.21,10.21,0,0,1,.38-3.24,7.93,7.93,0,0,1,7.6-5.53,7.84,7.84,0,0,1,8,7.84v1.41A1.31,1.31,0,0,1,173.09,32H162.87a.66.66,0,0,0-.69.65v.21a4.35,4.35,0,0,0,4.3,4.3h.42c1.44,0,3.23-1.24,4.4-2a1.49,1.49,0,0,1,.86-.24,1.35,1.35,0,0,1,1.27.72l.21.34a1.4,1.4,0,0,1,.24.83,1.42,1.42,0,0,1-.76,1.31c-2,1.2-3.71,2.27-6.22,2.27Z"/>
    <path class="cls-1" d="M187.23,40.45a7.92,7.92,0,0,1-7.6-5.54,10.17,10.17,0,0,1-.38-3.24V30.16a10.21,10.21,0,0,1,.38-3.24,7.93,7.93,0,0,1,7.6-5.53h.14c2.51,0,4.16,1,6.09,2.16a1.52,1.52,0,0,1,.52,2.14l-.24.34a1.37,1.37,0,0,1-1.28.72,1.49,1.49,0,0,1-.86-.24c-1.17-.72-2.75-1.86-4.23-1.86h-.14a4.36,4.36,0,0,0-4.13,3.17,9.09,9.09,0,0,0-.2,2.51V31.5a9.09,9.09,0,0,0,.2,2.51,4.36,4.36,0,0,0,4.13,3.17h.14c1.48,0,3.06-1.14,4.23-1.86a1.49,1.49,0,0,1,.86-.24,1.37,1.37,0,0,1,1.28.72l.24.35a1.36,1.36,0,0,1,.24.82,1.41,1.41,0,0,1-.76,1.31c-1.93,1.2-3.58,2.17-6.09,2.17Z"/>
    <path class="cls-1" d="M202.72,27.82a9,9,0,0,0-.21,2.51V31.5a9,9,0,0,0,.21,2.51A4.28,4.28,0,0,0,211,34a9.09,9.09,0,0,0,.2-2.51V30.33a9.09,9.09,0,0,0-.2-2.51,4.28,4.28,0,0,0-8.26,0m-3.48,7.09a10.24,10.24,0,0,1-.37-3.24V30.16a10.16,10.16,0,0,1,.37-3.23,8,8,0,0,1,15.21,0,10.1,10.1,0,0,1,.38,3.23v1.51a10.17,10.17,0,0,1-.38,3.24,8,8,0,0,1-15.21,0"/>
    <path class="cls-1" d="M229.11,38.9a1.51,1.51,0,0,1-1.51,1.55h-.35a6.36,6.36,0,0,1-6.4-6.37V15.92a1.51,1.51,0,0,1,1.55-1.52H223a1.51,1.51,0,0,1,1.55,1.52V34.36a2.78,2.78,0,0,0,2.75,2.82h.35a1.51,1.51,0,0,1,1.51,1.55Z"/>
    <path class="cls-1" d="M244.43,28.92a.57.57,0,0,0,.65-.65,1.27,1.27,0,0,0,0-.35,4.29,4.29,0,0,0-8.33,0,1,1,0,0,0,0,.35c0,.44.21.65.66.65Zm-3.55,11.53a7.91,7.91,0,0,1-7.6-5.54,10.17,10.17,0,0,1-.38-3.24V30.16a10.21,10.21,0,0,1,.38-3.24,8,8,0,0,1,15.55,2.31v1.41A1.31,1.31,0,0,1,247.49,32H237.27a.66.66,0,0,0-.69.65v.21a4.35,4.35,0,0,0,4.3,4.3h.41c1.45,0,3.24-1.24,4.41-2a1.49,1.49,0,0,1,.86-.24,1.35,1.35,0,0,1,1.27.72L248,36a1.4,1.4,0,0,1,.24.83,1.42,1.42,0,0,1-.76,1.31c-2,1.2-3.71,2.27-6.23,2.27Z"/>
    <path class="cls-1" d="M164,59.75a1.16,1.16,0,0,0-.65,1.07v7.64a1.16,1.16,0,0,0,.65,1.07,6.68,6.68,0,0,0,3.68,1.37,4.36,4.36,0,0,0,4.13-3.16,9,9,0,0,0,.21-2.51V64.05a9,9,0,0,0-.21-2.51,4.36,4.36,0,0,0-4.13-3.16A6.68,6.68,0,0,0,164,59.75M163.87,73a.75.75,0,0,0-.24-.07c-.21,0-.31.1-.31.34v6.4a1.49,1.49,0,0,1-1.52,1.52h-.55a1.52,1.52,0,0,1-1.55-1.52V56.93a1.31,1.31,0,0,1,1.35-1.37,1.33,1.33,0,0,1,1.34,1.1.27.27,0,0,0,.31.24.69.69,0,0,0,.24-.07l1-.58a7.06,7.06,0,0,1,3.75-1.14,7.91,7.91,0,0,1,7.6,5.54,9.75,9.75,0,0,1,.39,3.23V65.4a9.75,9.75,0,0,1-.39,3.23,7.91,7.91,0,0,1-7.6,5.54,7.66,7.66,0,0,1-3.78-1.2"/>
    <path class="cls-1" d="M185.62,60.72V72.18a1.51,1.51,0,0,1-1.52,1.54h-.55A1.54,1.54,0,0,1,182,72.18V56.93a1.31,1.31,0,0,1,1.34-1.37,1.34,1.34,0,0,1,1.35,1.1.27.27,0,0,0,.31.24,1.16,1.16,0,0,0,.24-.07l1-.58A7.06,7.06,0,0,1,190,55.11a1.54,1.54,0,0,1,1.55,1.55v.17A1.54,1.54,0,0,1,190,58.38a8.72,8.72,0,0,0-3.82,1.48c-.51.31-.51.48-.51.86"/>
    <path class="cls-1" d="M198.8,61.54a8.7,8.7,0,0,0-.21,2.52v1.16a8.7,8.7,0,0,0,.21,2.52,4.27,4.27,0,0,0,8.25,0,8.7,8.7,0,0,0,.21-2.52V64.06a8.7,8.7,0,0,0-.21-2.52,4.27,4.27,0,0,0-8.25,0m-3.48,7.09a10.1,10.1,0,0,1-.38-3.23V63.88a10.1,10.1,0,0,1,.38-3.23,8,8,0,0,1,15.21,0,10.1,10.1,0,0,1,.38,3.23V65.4a10.1,10.1,0,0,1-.38,3.23,8,8,0,0,1-15.21,0"/>
    <path class="cls-1" d="M227,57.28a1.54,1.54,0,0,1-1.54,1.55h-3.24a.69.69,0,0,0-.69.68V72.18A1.5,1.5,0,0,1,220,73.72h-.55a1.54,1.54,0,0,1-1.55-1.54V59.51a.69.69,0,0,0-.69-.68h-.31a1.54,1.54,0,0,1-1.55-1.55v-.17a1.54,1.54,0,0,1,1.55-1.55h.31a.69.69,0,0,0,.69-.69v-.41a6.32,6.32,0,0,1,6.4-6.33h.31a1.51,1.51,0,0,1,1.55,1.51v.2a1.54,1.54,0,0,1-1.55,1.55h-.31a2.75,2.75,0,0,0-2.79,2.76v.72a.69.69,0,0,0,.69.69h3.24A1.54,1.54,0,0,1,227,57.11Z"/>
    <path class="cls-1" d="M241.81,62.65c.45,0,.65-.21.65-.66a1.16,1.16,0,0,0,0-.34,4.29,4.29,0,0,0-8.33,0,1.16,1.16,0,0,0,0,.34c0,.45.2.66.65.66Zm-3.54,11.52a7.93,7.93,0,0,1-7.61-5.54,10.1,10.1,0,0,1-.38-3.23V63.88a10.1,10.1,0,0,1,.38-3.23,7.93,7.93,0,0,1,7.61-5.54A7.84,7.84,0,0,1,246.21,63v1.4a1.31,1.31,0,0,1-1.34,1.38H234.65a.66.66,0,0,0-.68.66v.2a4.35,4.35,0,0,0,4.3,4.3h.41c1.44,0,3.23-1.23,4.4-2a1.49,1.49,0,0,1,.86-.24,1.37,1.37,0,0,1,1.28.72l.2.35a1.36,1.36,0,0,1,.24.82,1.41,1.41,0,0,1-.75,1.31c-2,1.21-3.72,2.27-6.23,2.27Z"/>
    <path class="cls-1" d="M251.72,71.87a1.74,1.74,0,0,1,.07-.66A1.46,1.46,0,0,1,253.27,70a3.1,3.1,0,0,1,.69.11l1.72.41a9.42,9.42,0,0,0,2.72.34c1.48,0,3-.51,3-2.16a2,2,0,0,0-1-1.86,7.11,7.11,0,0,0-1.75-.55l-2.17-.45a10.33,10.33,0,0,1-2.75-.89A5.19,5.19,0,0,1,251,60.44c0-3.06,2.51-5.33,6.4-5.33a15,15,0,0,1,3.07.31,13.33,13.33,0,0,1,1.92.45,1.36,1.36,0,0,1,1.17,1.41,1.51,1.51,0,0,1-.07.65A1.46,1.46,0,0,1,262,59.1a1.78,1.78,0,0,1-.68-.1,18.15,18.15,0,0,0-3.93-.62c-2,0-3,.93-3,2.06a1.83,1.83,0,0,0,.76,1.59,4.84,4.84,0,0,0,2,.65l2.17.45a10.84,10.84,0,0,1,2.58.82,5.17,5.17,0,0,1,2.89,4.79c0,3.78-3.1,5.43-6.4,5.43a19,19,0,0,1-3.37-.34,22.32,22.32,0,0,1-2.17-.55,1.37,1.37,0,0,1-1.17-1.41"/>
    <path class="cls-1" d="M270.68,71.87a1.74,1.74,0,0,1,.07-.66A1.46,1.46,0,0,1,272.23,70a3.1,3.1,0,0,1,.69.11l1.72.41a9.42,9.42,0,0,0,2.72.34c1.48,0,3-.51,3-2.16a2,2,0,0,0-1-1.86,7,7,0,0,0-1.75-.55l-2.17-.45a10.33,10.33,0,0,1-2.75-.89A5.18,5.18,0,0,1,270,60.44c0-3.06,2.51-5.33,6.4-5.33a14.93,14.93,0,0,1,3.06.31,13.33,13.33,0,0,1,1.92.45,1.36,1.36,0,0,1,1.17,1.41,1.51,1.51,0,0,1-.07.65A1.45,1.45,0,0,1,281,59.1a1.8,1.8,0,0,1-.69-.1,18.18,18.18,0,0,0-3.92-.62c-2,0-3,.93-3,2.06a1.85,1.85,0,0,0,.75,1.59,4.84,4.84,0,0,0,2,.65l2.17.45a10.68,10.68,0,0,1,2.58.82,5.17,5.17,0,0,1,2.89,4.79c0,3.78-3.09,5.43-6.4,5.43a19,19,0,0,1-3.37-.34,22.32,22.32,0,0,1-2.17-.55,1.37,1.37,0,0,1-1.17-1.41"/>
    <path class="cls-1" d="M293.84,72.18a1.5,1.5,0,0,1-1.51,1.54h-.55a1.54,1.54,0,0,1-1.55-1.54V57.11a1.54,1.54,0,0,1,1.55-1.55h.55a1.51,1.51,0,0,1,1.51,1.55Zm.62-22.3a2.25,2.25,0,0,1-2.27,2.27h-.27a2.25,2.25,0,0,1-2.28-2.27V49.6a2.25,2.25,0,0,1,2.28-2.27h.27a2.25,2.25,0,0,1,2.27,2.27Z"/>
    <path class="cls-1" d="M304.17,61.54a8.7,8.7,0,0,0-.21,2.52v1.16a8.7,8.7,0,0,0,.21,2.52,4.27,4.27,0,0,0,8.25,0,9.07,9.07,0,0,0,.21-2.52V64.06a9.07,9.07,0,0,0-.21-2.52,4.27,4.27,0,0,0-8.25,0m-3.48,7.09a10.1,10.1,0,0,1-.38-3.23V63.88a10.1,10.1,0,0,1,.38-3.23,8,8,0,0,1,15.21,0,10.1,10.1,0,0,1,.38,3.23V65.4a10.1,10.1,0,0,1-.38,3.23,8,8,0,0,1-15.21,0"/>
    <path class="cls-1" d="M326.91,59.75a1.16,1.16,0,0,0-.65,1.07V72.18a1.51,1.51,0,0,1-1.52,1.54h-.55a1.54,1.54,0,0,1-1.55-1.54V56.93A1.31,1.31,0,0,1,324,55.56a1.33,1.33,0,0,1,1.34,1.1.27.27,0,0,0,.31.24.69.69,0,0,0,.24-.07l1-.58a7.09,7.09,0,0,1,3.75-1.14,7.93,7.93,0,0,1,7.61,5.54,10.1,10.1,0,0,1,.38,3.23v8.3A1.54,1.54,0,0,1,337,73.72h-.55a1.54,1.54,0,0,1-1.55-1.54V64.05a9,9,0,0,0-.21-2.51,4.34,4.34,0,0,0-4.13-3.16,6.68,6.68,0,0,0-3.68,1.37"/>
    <path class="cls-1" d="M350.07,59.75a1.16,1.16,0,0,0-.65,1.07V72.18a1.51,1.51,0,0,1-1.52,1.54h-.55a1.54,1.54,0,0,1-1.55-1.54V56.93a1.31,1.31,0,0,1,1.35-1.37,1.33,1.33,0,0,1,1.34,1.1.27.27,0,0,0,.31.24.69.69,0,0,0,.24-.07l1-.58a7.06,7.06,0,0,1,3.75-1.14,7.93,7.93,0,0,1,7.61,5.54,10.1,10.1,0,0,1,.38,3.23v8.3a1.54,1.54,0,0,1-1.55,1.54h-.55a1.54,1.54,0,0,1-1.55-1.54V64.05a9,9,0,0,0-.21-2.51,4.35,4.35,0,0,0-4.13-3.16,6.68,6.68,0,0,0-3.68,1.37"/>
    <path class="cls-1" d="M379.29,62.65c.44,0,.65-.21.65-.66a1.16,1.16,0,0,0,0-.34,4.29,4.29,0,0,0-8.33,0,1.16,1.16,0,0,0,0,.34c0,.45.2.66.65.66Zm-3.55,11.52a7.92,7.92,0,0,1-7.6-5.54,10.1,10.1,0,0,1-.38-3.23V63.88a10.1,10.1,0,0,1,.38-3.23,7.92,7.92,0,0,1,7.6-5.54A7.84,7.84,0,0,1,383.69,63v1.4a1.31,1.31,0,0,1-1.34,1.38H372.13a.67.67,0,0,0-.69.66v.2a4.35,4.35,0,0,0,4.3,4.3h.42c1.44,0,3.23-1.23,4.4-2a1.49,1.49,0,0,1,.86-.24,1.35,1.35,0,0,1,1.27.72l.21.35a1.36,1.36,0,0,1,.24.82,1.41,1.41,0,0,1-.76,1.31c-2,1.21-3.71,2.27-6.22,2.27Z"/>
    <path class="cls-1" d="M397.63,72.62a1.52,1.52,0,0,1-1.51,1.55h-.35a6.36,6.36,0,0,1-6.4-6.36V49.64a1.51,1.51,0,0,1,1.55-1.51h.55A1.51,1.51,0,0,1,393,49.64V68.08a2.77,2.77,0,0,0,2.75,2.82h.35a1.52,1.52,0,0,1,1.51,1.55Z"/>
    <path class="cls-1" d="M410.53,72.62A1.51,1.51,0,0,1,409,74.17h-.35a6.36,6.36,0,0,1-6.4-6.36V49.64a1.51,1.51,0,0,1,1.55-1.51h.55a1.51,1.51,0,0,1,1.55,1.51V68.08a2.78,2.78,0,0,0,2.75,2.82H409a1.51,1.51,0,0,1,1.51,1.55Z"/>
    <path class="cls-1" d="M425.85,62.65c.44,0,.65-.21.65-.66a1.16,1.16,0,0,0,0-.34,4.29,4.29,0,0,0-8.33,0,1.16,1.16,0,0,0,0,.34c0,.45.2.66.65.66ZM422.3,74.17a7.92,7.92,0,0,1-7.6-5.54,10.1,10.1,0,0,1-.38-3.23V63.88a10.1,10.1,0,0,1,.38-3.23,7.92,7.92,0,0,1,7.6-5.54A7.84,7.84,0,0,1,430.25,63v1.4a1.31,1.31,0,0,1-1.34,1.38H418.69a.67.67,0,0,0-.69.66v.2a4.35,4.35,0,0,0,4.3,4.3h.42c1.44,0,3.23-1.23,4.4-2a1.49,1.49,0,0,1,.86-.24,1.35,1.35,0,0,1,1.27.72l.21.35a1.36,1.36,0,0,1,.24.82,1.41,1.41,0,0,1-.76,1.31c-2,1.21-3.71,2.27-6.22,2.27Z"/>
    <path class="cls-1" d="M181.72,105.9a1.54,1.54,0,0,1-1.54,1.55h-.55a1.54,1.54,0,0,1-1.55-1.55v-11a2.73,2.73,0,0,0-2.75-2.76,4.9,4.9,0,0,0-2.45,1c-.41.27-.48.41-.48.65a10.17,10.17,0,0,1,.1,1.38v10.8a1.54,1.54,0,0,1-1.55,1.55h-.54a1.54,1.54,0,0,1-1.55-1.55v-11a2.73,2.73,0,0,0-2.75-2.76,4.22,4.22,0,0,0-2.28.86c-.51.38-.51.48-.51.86V105.9a1.52,1.52,0,0,1-1.52,1.55h-.55a1.54,1.54,0,0,1-1.55-1.55V90.66a1.32,1.32,0,0,1,1.35-1.38,1.42,1.42,0,0,1,1.2.72c.07.11.14.18.24.18a.6.6,0,0,0,.31-.14,6,6,0,0,1,3.31-1.21,6.13,6.13,0,0,1,4.26,1.62c.1.11.17.14.24.14a.46.46,0,0,0,.28-.1c.24-.14.48-.31,1-.62a6.32,6.32,0,0,1,9.8,5.33Z"/>
    <path class="cls-1" d="M191.6,95.27a9.09,9.09,0,0,0-.2,2.51V99a9.09,9.09,0,0,0,.2,2.51,4.28,4.28,0,0,0,8.26,0,9,9,0,0,0,.21-2.51V97.78a9,9,0,0,0-.21-2.51,4.28,4.28,0,0,0-8.26,0m-3.47,7.09a10.17,10.17,0,0,1-.38-3.24V97.61a10.21,10.21,0,0,1,.38-3.24,8,8,0,0,1,15.21,0,10.21,10.21,0,0,1,.38,3.24v1.51a10.17,10.17,0,0,1-.38,3.24,8,8,0,0,1-15.21,0"/>
    <path class="cls-1" d="M214.35,93.48a1.15,1.15,0,0,0-.65,1.07V105.9a1.52,1.52,0,0,1-1.52,1.55h-.55a1.54,1.54,0,0,1-1.55-1.55V90.66a1.32,1.32,0,0,1,1.35-1.38,1.34,1.34,0,0,1,1.34,1.1c0,.18.14.24.31.24a.93.93,0,0,0,.24-.06l1-.59A7.06,7.06,0,0,1,218,88.83a7.93,7.93,0,0,1,7.61,5.54,10.21,10.21,0,0,1,.38,3.24v8.29a1.55,1.55,0,0,1-1.56,1.55h-.54a1.54,1.54,0,0,1-1.55-1.55V97.78a9,9,0,0,0-.21-2.51A4.36,4.36,0,0,0,218,92.1a6.67,6.67,0,0,0-3.68,1.38"/>
    <path class="cls-1" d="M243,91a1.54,1.54,0,0,1-1.55,1.55H238.2a.69.69,0,0,0-.69.69v8.6a2.78,2.78,0,0,0,2.79,2.79h.31a1.5,1.5,0,0,1,1.54,1.51v.21a1.54,1.54,0,0,1-1.54,1.55h-.31a6.36,6.36,0,0,1-6.4-6.37V93.24a.69.69,0,0,0-.69-.69h-.31A1.54,1.54,0,0,1,231.35,91v-.17a1.54,1.54,0,0,1,1.55-1.55h.31a.7.7,0,0,0,.62-.51l1-4a1.35,1.35,0,0,1,1.34-1.14A1.32,1.32,0,0,1,237.51,85v3.61a.69.69,0,0,0,.69.69h3.23A1.54,1.54,0,0,1,243,90.83Z"/>
    <path class="cls-1" d="M251.58,94.44V105.9a1.51,1.51,0,0,1-1.51,1.55h-.55A1.54,1.54,0,0,1,248,105.9V90.66a1.31,1.31,0,0,1,1.34-1.38,1.33,1.33,0,0,1,1.34,1.1.28.28,0,0,0,.31.24.8.8,0,0,0,.25-.07l1-.58a7.06,7.06,0,0,1,3.75-1.14,1.54,1.54,0,0,1,1.55,1.55v.17a1.54,1.54,0,0,1-1.55,1.55,8.72,8.72,0,0,0-3.82,1.48c-.52.31-.52.48-.52.86"/>
    <path class="cls-1" d="M272.44,96.37a.57.57,0,0,0,.65-.65,1.27,1.27,0,0,0,0-.35,4.29,4.29,0,0,0-8.33,0,1.27,1.27,0,0,0,0,.35.57.57,0,0,0,.65.65Zm-3.55,11.53a7.92,7.92,0,0,1-7.6-5.54,10.21,10.21,0,0,1-.38-3.24V97.61a10.21,10.21,0,0,1,.38-3.24,7.93,7.93,0,0,1,7.6-5.53,7.84,7.84,0,0,1,7.95,7.84v1.41a1.31,1.31,0,0,1-1.34,1.38H265.28a.66.66,0,0,0-.69.65v.21a4.35,4.35,0,0,0,4.3,4.3h.42c1.44,0,3.23-1.24,4.4-2a1.43,1.43,0,0,1,.86-.25,1.36,1.36,0,0,1,1.27.73l.21.34a1.4,1.4,0,0,1,.24.83,1.42,1.42,0,0,1-.76,1.31c-2,1.2-3.71,2.27-6.22,2.27Z"/>
    <path class="cls-1" d="M282.52,90.83a1.54,1.54,0,0,1,1.55-1.55h.55a1.54,1.54,0,0,1,1.55,1.55v8.29a10.68,10.68,0,0,0,.2,2.44,4,4,0,0,0,3.93,3,6.9,6.9,0,0,0,3.58-1.34,1.17,1.17,0,0,0,.65-1.07V90.83A1.51,1.51,0,0,1,296,89.28h.55a1.54,1.54,0,0,1,1.55,1.55v15.24a1.31,1.31,0,0,1-1.34,1.38,1.33,1.33,0,0,1-1.34-1.1.27.27,0,0,0-.31-.24.93.93,0,0,0-.24.06l-1,.59a7.78,7.78,0,0,1-3.78,1.1,7.52,7.52,0,0,1-7.26-5.4,10.1,10.1,0,0,1-.38-3.17Z"/>
    <path class="cls-1" d="M316.21,107.45a1.52,1.52,0,0,1-1.27-.62l-3.27-5.09c-.55-.86-.52-1.35-.9-1.35s-.31.49-.86,1.35l-3.2,5.09a1.56,1.56,0,0,1-1.27.62,1.89,1.89,0,0,1-1.79-1.69,1.54,1.54,0,0,1,.31-.89l4.23-6.4a1,1,0,0,0,.17-.48.93.93,0,0,0-.17-.48l-3.71-5.65a1.47,1.47,0,0,1-.31-.89,1.85,1.85,0,0,1,1.75-1.69,1.38,1.38,0,0,1,1.27.62l2.72,4.34c.55.86.48,1.3.86,1.3s.35-.44.9-1.3l2.75-4.34a1.49,1.49,0,0,1,1.27-.62A1.86,1.86,0,0,1,317.45,91a1.5,1.5,0,0,1-.31.89l-3.75,5.65a.87.87,0,0,0-.18.48,1,1,0,0,0,.18.48l4.26,6.4a1.54,1.54,0,0,1,.31.89,1.85,1.85,0,0,1-1.75,1.69"/>
  </g>
</svg>
