<svg id="Calque_1" data-name="Calque 1" xmlns="http://www.w3.org/2000/svg" viewBox="0 0 333.05 99.98">
  <defs>
    <style>
      .cls-1 {
        fill: #fff;
      }
    </style>
  </defs>
  <g>
    <path class="cls-1" d="M166.53.06H12.21A10.82,10.82,0,0,0,9.47.21,12.34,12.34,0,0,0,0,12.68Q0,49.21,0,85.73c0,1.19.09,2.39.2,3.58A12,12,0,0,0,12.31,100q153.95,0,307.91,0a16.2,16.2,0,0,0,5.24-.93A11.4,11.4,0,0,0,333,88.42c0-25.43-.09-50.86.05-76.28A12.36,12.36,0,0,0,320.85,0Q243.69.15,166.53.06Z"/>
    <path d="M166.53.06Q243.69.06,320.85,0a12.36,12.36,0,0,1,12.2,12.14C332.91,37.56,333,63,333,88.42A11.4,11.4,0,0,1,325.46,99a16.2,16.2,0,0,1-5.24.93q-154,.06-307.91,0A12,12,0,0,1,.22,89.31C.11,88.12,0,86.92,0,85.73Q0,49.21,0,12.68A12.34,12.34,0,0,1,9.47.21,10.82,10.82,0,0,1,12.21.06Zm-.11,96.35v0H318a12.76,12.76,0,0,0,3.22-.16,10.43,10.43,0,0,0,8-10.08q.09-36.41,0-72.81a11,11,0,0,0-1.23-4.79c-2.11-4.08-5.74-5.73-10.24-5.73H18.06c-1.2,0-2.4,0-3.6,0A10.8,10.8,0,0,0,7.61,5.27a10.27,10.27,0,0,0-3.74,8.38c.08,23.75,0,47.5,0,71.25a17.91,17.91,0,0,0,.55,4.8,9.67,9.67,0,0,0,8.72,6.7c1.48,0,3,0,4.44,0Z"/>
    <path class="cls-1" d="M166.42,96.41H17.62c-1.48,0-3,0-4.44,0a9.67,9.67,0,0,1-8.72-6.7,17.91,17.91,0,0,1-.55-4.8c0-23.75,0-47.5,0-71.25A10.27,10.27,0,0,1,7.61,5.27a10.8,10.8,0,0,1,6.85-2.41c1.2,0,2.4,0,3.6,0H317.7c4.5,0,8.13,1.65,10.24,5.73a11,11,0,0,1,1.23,4.79q.1,36.41,0,72.81a10.43,10.43,0,0,1-8,10.08,12.76,12.76,0,0,1-3.22.16H166.42ZM26.13,49.72c0,9-.1,18,.05,27.05.06,3.79,2.43,5.38,5.81,3.57,2.5-1.32,4.93-2.77,7.38-4.18Q50.13,70,60.87,63.85q9.75-5.55,19.55-11a3.2,3.2,0,0,0,1.91-3,3.61,3.61,0,0,0-2.06-3.25Q72.1,42,64,37.42C58.31,34.23,52.71,31,47.08,27.79c-5.25-3-10.5-6-15.79-8.86C29.5,18,27.67,18.42,27,20a7.76,7.76,0,0,0-.82,2.93C26.1,31.85,26.13,40.79,26.13,49.72ZM126.2,35.88a14.1,14.1,0,0,0-8.35-4.51,17,17,0,0,0-7.9.41,16.45,16.45,0,0,0-8.27,5.35c-3.33,4.19-4.83,8.89-3.53,14.28a16.74,16.74,0,0,0,7,10.15,17.27,17.27,0,0,0,11.72,2.83,14.53,14.53,0,0,0,8-3.19c4.31-3.44,5.65-8.06,5.43-13.36-.05-1.15-.46-1.39-1.5-1.38-3.64,0-7.28,0-10.91,0-3.11,0-3.07,0-3.1,3.12,0,.9.24,1.17,1.15,1.15,2.87,0,5.75,0,8.63,0,.87,0,1.2.34,1,1.15a9.38,9.38,0,0,1-2.31,4.63,10.73,10.73,0,0,1-6.67,3.36,11.91,11.91,0,0,1-9.42-2.49A11.76,11.76,0,0,1,103,45a11.61,11.61,0,0,1,9.2-9.13,11.49,11.49,0,0,1,10.16,2.41,1,1,0,0,0,1,.08C124.27,37.61,125.2,36.75,126.2,35.88Zm69.05,26.44a6.71,6.71,0,0,1-.4,4.77c-1.62,3.41-7,4-9.57.81-1.4-1.71-1.5-1.69-3.51-.75a3.89,3.89,0,0,1-.63.34c-.83.23-.83.65-.45,1.34a9.82,9.82,0,0,0,7.53,5.27c6.1.81,11.26-2.68,11.52-9.14.27-6.78.08-13.57.08-20.35,0-.29-.17-.82-.29-.83a18.2,18.2,0,0,0-3.46-.06c-.31,0-.54.8-.91,1.42a8.12,8.12,0,0,0-7.24-2,10.07,10.07,0,0,0-6.55,4.25,10.87,10.87,0,0,0,0,12.72,10.07,10.07,0,0,0,6.22,4.17A8.7,8.7,0,0,0,195.25,62.32Zm45.32-14.11c0,4.87,0,9.74,0,14.61,0,1,.31,1.26,1.24,1.16a15.89,15.89,0,0,1,2.39,0c.8,0,1.26-.12,1.23-1.11-.08-3.34-.07-6.69-.13-10,0-.8.23-1.15,1.09-1.13,2.2,0,4.4,0,6.6,0a9.11,9.11,0,0,0,6.5-2.85,9.26,9.26,0,0,0,2.43-9.68,9.9,9.9,0,0,0-9.15-6.81c-3.6-.07-7.2,0-10.8-.07-1.17,0-1.41.39-1.4,1.44C240.59,38.56,240.57,43.39,240.57,48.21Zm45.66,13.54c.37,2,.37,2,2.25,2,.44,0,.89,0,1.32,0,.88.1,1.1-.33,1.09-1.12,0-4.19.09-8.38-.11-12.56A6.8,6.8,0,0,0,287.9,45a10.85,10.85,0,0,0-7.67-1.92,8.84,8.84,0,0,0-7.34,4.57c.66.29,1.24.53,1.8.81,1.25.65,2.3,1.23,3.57-.28s3.21-1.13,4.85-.77a3.8,3.8,0,0,1,3.19,3c.14.73-.09,1.13-.9.76a10.44,10.44,0,0,0-8.68.16,6.57,6.57,0,0,0-2.27,11c2.43,2.36,8.5,3.19,10.93,0A3.63,3.63,0,0,1,286.23,61.75ZM142.84,64.43a10.34,10.34,0,0,0,10.78-10.89c-.14-5.89-4.18-10.93-11.91-10.47-5.16.32-9.91,4.39-9.68,11.24A10.37,10.37,0,0,0,142.84,64.43Zm23.63,0a10.53,10.53,0,0,0,10.84-10.63c0-5.53-4.09-11.14-11.67-10.74a10.7,10.7,0,0,0,.83,21.37ZM230.31,51c-.76-1.38-1.38-2.67-2.13-3.86a9.38,9.38,0,0,0-11.51-3.39c-6.1,2.55-8,10.12-4.88,15.53,2.65,4.63,8.06,6.27,13.06,4.54a9.79,9.79,0,0,0,5.05-4.06L228,58.47c-1.52-1.06-1.51-1-2.87.24-2.35,2.25-6.78,2.19-8.78-.63-.57-.8-.51-1.17.47-1.56C221.26,54.76,225.64,52.92,230.31,51Zm64.75,22.44c1.58,0,2.82.09,4,0a1.81,1.81,0,0,0,1.14-1q5.1-11.48,10.11-23c.81-1.84,1.57-3.7,2.46-5.81-1.47,0-2.69,0-3.91,0a1.55,1.55,0,0,0-1.68,1.19c-1.44,3.77-2.94,7.53-4.45,11.29a5.49,5.49,0,0,1-.78,1c-.19-.33-.29-.46-.35-.6-1.62-4-3.23-7.93-4.88-11.88-.14-.34-.44-.86-.69-.87-1.48-.09-3,0-4.52,0a5.65,5.65,0,0,0,.14.65c2.58,5.85,5.18,11.69,7.72,17.55a2.4,2.4,0,0,1,0,1.65c-.65,1.66-1.43,3.28-2.15,4.91ZM203.4,48.06h0V61.21c0,2.75,0,2.75,2.76,2.76C208,64,208,64,208,62.08V35.78c0-3.53,0-3.49-3.53-3.48-.91,0-1.14.3-1.13,1.17C203.42,38.33,203.4,43.2,203.4,48.06Zm66.3.13h0V35.63c0-3.3,0-3.25-3.31-3.34-1.07,0-1.35.28-1.34,1.33q.06,14.48,0,28.94c0,1.11.27,1.52,1.4,1.38a10.21,10.21,0,0,1,2.14,0c.84.08,1.12-.21,1.12-1.06C269.68,58,269.7,53.09,269.7,48.19Z"/>
    <path d="M26.13,49.72c0-8.93,0-17.87,0-26.8A7.76,7.76,0,0,1,27,20c.68-1.57,2.51-2,4.3-1.06,5.29,2.89,10.54,5.88,15.79,8.86C52.71,31,58.31,34.23,64,37.42Q72.08,42,80.27,46.55a3.61,3.61,0,0,1,2.06,3.25,3.2,3.2,0,0,1-1.91,3q-9.81,5.44-19.55,11Q50.12,70,39.37,76.16C36.92,77.57,34.49,79,32,80.34c-3.38,1.81-5.75.22-5.81-3.57C26,67.76,26.13,58.74,26.13,49.72Z"/>
    <path d="M126.2,35.88c-1,.87-1.93,1.73-2.93,2.52a1,1,0,0,1-1-.08,11.49,11.49,0,0,0-10.16-2.41A11.61,11.61,0,0,0,103,45a11.76,11.76,0,0,0,4.22,12.33,11.91,11.91,0,0,0,9.42,2.49,10.73,10.73,0,0,0,6.67-3.36,9.38,9.38,0,0,0,2.31-4.63c.18-.81-.15-1.16-1-1.15-2.88,0-5.76,0-8.63,0-.91,0-1.16-.25-1.15-1.15,0-3.11,0-3.11,3.1-3.12,3.63,0,7.27,0,10.91,0,1,0,1.45.23,1.5,1.38.22,5.3-1.12,9.92-5.43,13.36a14.53,14.53,0,0,1-8,3.19,17.27,17.27,0,0,1-11.72-2.83,16.74,16.74,0,0,1-7-10.15c-1.3-5.39.2-10.09,3.53-14.28A16.45,16.45,0,0,1,110,31.78a17,17,0,0,1,7.9-.41A14.1,14.1,0,0,1,126.2,35.88Z"/>
    <path d="M195.25,62.32a8.7,8.7,0,0,1-7.68,2,10.07,10.07,0,0,1-6.22-4.17,10.87,10.87,0,0,1,0-12.72,10.07,10.07,0,0,1,6.55-4.25,8.12,8.12,0,0,1,7.24,2c.37-.62.6-1.39.91-1.42a18.2,18.2,0,0,1,3.46.06c.12,0,.29.54.29.83,0,6.78.19,13.57-.08,20.35-.26,6.46-5.42,10-11.52,9.14a9.82,9.82,0,0,1-7.53-5.27c-.38-.69-.38-1.11.45-1.34a3.89,3.89,0,0,0,.63-.34c2-.94,2.11-1,3.51.75,2.57,3.17,7.95,2.6,9.57-.81A6.71,6.71,0,0,0,195.25,62.32Zm-11.41-8.59a20.66,20.66,0,0,0,.81,3.07,5.76,5.76,0,0,0,9.59,1.55,7,7,0,0,0,1.08-7.3,5.3,5.3,0,0,0-4.5-3.77C186.94,46.86,184.06,49.68,183.84,53.73Z"/>
    <path d="M240.57,48.21c0-4.82,0-9.65,0-14.48,0-1,.23-1.46,1.4-1.44,3.6.1,7.2,0,10.8.07a9.9,9.9,0,0,1,9.15,6.81,9.26,9.26,0,0,1-2.43,9.68A9.11,9.11,0,0,1,253,51.7c-2.2,0-4.4,0-6.6,0-.86,0-1.1.33-1.09,1.13.06,3.35.05,6.7.13,10,0,1-.43,1.14-1.23,1.11a15.89,15.89,0,0,0-2.39,0c-.93.1-1.25-.17-1.24-1.16C240.6,58,240.57,53.08,240.57,48.21Zm4.72-5.44h0c0,1.23,0,2.47,0,3.7,0,.78.35,1,1,.94,1.92,0,3.83.05,5.75,0a7.18,7.18,0,0,0,2.39-.45c2.06-.82,3.66-3.78,3.19-5.74a5.87,5.87,0,0,0-6.06-4.66,30.71,30.71,0,0,1-4.89,0c-1.22-.1-1.46.41-1.43,1.43C245.31,39.59,245.29,41.18,245.29,42.77Z"/>
    <path d="M286.23,61.75a3.63,3.63,0,0,0-.85.58c-2.43,3.18-8.5,2.35-10.93,0a6.57,6.57,0,0,1,2.27-11,10.44,10.44,0,0,1,8.68-.16c.81.37,1,0,.9-.76a3.8,3.8,0,0,0-3.19-3c-1.64-.36-3.62-.7-4.85.77s-2.32.93-3.57.28c-.56-.28-1.14-.52-1.8-.81a8.84,8.84,0,0,1,7.34-4.57A10.85,10.85,0,0,1,287.9,45a6.8,6.8,0,0,1,2.88,5.13c.2,4.18.07,8.37.11,12.56,0,.79-.21,1.22-1.09,1.12-.43-.05-.88,0-1.32,0C286.6,63.77,286.6,63.77,286.23,61.75Zm-4.38-7.81a21.16,21.16,0,0,0-3.48,1.25,2.47,2.47,0,0,0-.48,4.09,4.29,4.29,0,0,0,4.59.75,5.15,5.15,0,0,0,3.72-4,1.64,1.64,0,0,0-.87-1.29A26.52,26.52,0,0,0,281.85,53.94Z"/>
    <path d="M142.84,64.43A10.37,10.37,0,0,1,132,54.31c-.23-6.85,4.52-10.92,9.68-11.24,7.73-.46,11.77,4.58,11.91,10.47A10.34,10.34,0,0,1,142.84,64.43Zm0-4.17c3.88,0,6-3.06,6.16-6.56a6.21,6.21,0,1,0-12.39.21C136.63,57.16,139.34,60.43,142.86,60.26Z"/>
    <path d="M166.47,64.44a10.7,10.7,0,0,1-.83-21.37c7.58-.4,11.7,5.21,11.67,10.74A10.53,10.53,0,0,1,166.47,64.44Zm.08-4.18c3.19.21,6.31-3,6.07-7.18-.17-3-3.21-6-6.23-5.88-3.7.15-6.12,2.95-6,6.87C160.43,57.63,163.31,60.5,166.55,60.26Z"/>
    <path d="M230.31,51c-4.67,1.93-9.05,3.77-13.47,5.53-1,.39-1,.76-.47,1.56,2,2.82,6.43,2.88,8.78.63,1.36-1.29,1.35-1.3,2.87-.24l1.88,1.28a9.79,9.79,0,0,1-5.05,4.06c-5,1.73-10.41.09-13.06-4.54-3.1-5.41-1.22-13,4.88-15.53a9.38,9.38,0,0,1,11.51,3.39C228.93,48.32,229.55,49.61,230.31,51Zm-15.18,2.25c.08,0,.17.08.23,0,2.86-1.16,5.72-2.31,8.56-3.5.68-.29.69-.75.15-1.3a5.23,5.23,0,0,0-6.38-.44C215.83,49.22,214.67,51.58,215.13,53.24Z"/>
    <path d="M295.06,73.43l2.19-4.92c.72-1.63,1.5-3.25,2.15-4.91a2.4,2.4,0,0,0,0-1.65c-2.54-5.86-5.14-11.7-7.72-17.55a5.65,5.65,0,0,1-.14-.65c1.56,0,3,0,4.52,0,.25,0,.55.53.69.87,1.65,4,3.26,7.92,4.88,11.88.06.14.16.27.35.6a5.49,5.49,0,0,0,.78-1c1.51-3.76,3-7.52,4.45-11.29a1.55,1.55,0,0,1,1.68-1.19c1.22,0,2.44,0,3.91,0-.89,2.11-1.65,4-2.46,5.81q-5,11.49-10.11,23a1.81,1.81,0,0,1-1.14,1C297.88,73.52,296.64,73.43,295.06,73.43Z"/>
    <path d="M203.4,48.06c0-4.86,0-9.73,0-14.59,0-.87.22-1.17,1.13-1.17,3.53,0,3.53,0,3.53,3.48v26.3C208,64,208,64,206.16,64c-2.76,0-2.76,0-2.76-2.76V48.06Z"/>
    <path d="M269.7,48.19c0,4.9,0,9.8,0,14.7,0,.85-.28,1.14-1.12,1.06a10.21,10.21,0,0,0-2.14,0c-1.13.14-1.4-.27-1.4-1.38q.07-14.48,0-28.94c0-1,.27-1.36,1.34-1.33,3.31.09,3.31,0,3.31,3.34V48.19Z"/>
    <path class="cls-1" d="M183.84,53.73c.22-4,3.1-6.87,7-6.45a5.3,5.3,0,0,1,4.5,3.77,7,7,0,0,1-1.08,7.3,5.76,5.76,0,0,1-9.59-1.55A20.66,20.66,0,0,1,183.84,53.73Z"/>
    <path class="cls-1" d="M245.29,42.77c0-1.59,0-3.18,0-4.77,0-1,.21-1.53,1.43-1.43a30.71,30.71,0,0,0,4.89,0,5.87,5.87,0,0,1,6.06,4.66c.47,2-1.13,4.92-3.19,5.74a7.18,7.18,0,0,1-2.39.45c-1.92.05-3.83,0-5.75,0-.66,0-1-.16-1-.94.05-1.23,0-2.47,0-3.7Z"/>
    <path class="cls-1" d="M281.85,53.94a26.52,26.52,0,0,1,3.48.85,1.64,1.64,0,0,1,.87,1.29,5.15,5.15,0,0,1-3.72,4,4.29,4.29,0,0,1-4.59-.75,2.47,2.47,0,0,1,.48-4.09A21.16,21.16,0,0,1,281.85,53.94Z"/>
    <path class="cls-1" d="M142.86,60.26c-3.52.17-6.23-3.1-6.23-6.35A6.21,6.21,0,1,1,149,53.7C148.91,57.2,146.74,60.25,142.86,60.26Z"/>
    <path class="cls-1" d="M166.55,60.26c-3.24.24-6.12-2.63-6.2-6.19-.08-3.92,2.34-6.72,6-6.87,3-.13,6.06,2.84,6.23,5.88C172.86,57.3,169.74,60.47,166.55,60.26Z"/>
    <path class="cls-1" d="M215.13,53.23c-.46-1.65.7-4,2.56-5.18a5.23,5.23,0,0,1,6.38.44c.54.55.53,1-.15,1.3-2.84,1.19-5.7,2.34-8.56,3.5C215.3,53.32,215.21,53.26,215.13,53.23Z"/>
  </g>
</svg>
