<?xml version="1.0" encoding="utf-8"?>
<!-- Generator: Adobe Illustrator 26.2.1, SVG Export Plug-In . SVG Version: 6.00 Build 0)  -->
<svg version="1.1" id="Calque_1" xmlns="http://www.w3.org/2000/svg" xmlns:xlink="http://www.w3.org/1999/xlink" x="0px" y="0px"
	 viewBox="0 0 293.9 252.5" style="enable-background:new 0 0 293.9 252.5;" xml:space="preserve">
<style type="text/css">
	.st0{fill:none;stroke:#1D1D1B;stroke-width:0.1;stroke-miterlimit:10;}
</style>
<g id="Calque_2_00000008116095048611543490000009083802270498177433_">
	<g id="Calque_2-2">
		<path class="st0" d="M249.7,108c2.1,2.2-2.6,6.6-4.2,7c0,0-0.1,31.1-19.7,57.5s-21.2,32.5-33.8,38.8c-16.6,8.2-23.5,6.4-45.1,6.4
			s-28.6,1.9-45.1-6.4c-12.5-6.2-14.1-12.3-33.8-38.8s-19.7-57.5-19.7-57.5c-1.6-0.4-6.3-4.8-4.2-7c-4.4-1.2-5.1-5.3-2.6-9.5
			c-2.2-3.7,0.3-9.6,5-9.6c-0.9-0.4-0.1-7.8,7.5-7.9c0,0,8.9-12.3,24-12.7c-1.7-6.2,1.5-8.6,1.5-8.6s0.3-4.4,2.9-5.8
			c-1.9-11.9,30.7-19.4,64.4-19.4s66.3,7.5,64.4,19.4c2.6,1.4,2.9,5.8,2.9,5.8s3.2,2.4,1.5,8.6c15.1,0.4,24,12.7,24,12.7
			c7.6,0.2,8.4,7.5,7.5,7.9c4.6,0,7.2,5.8,5,9.6C254.8,102.8,254,106.9,249.7,108z"/>
	</g>
</g>
</svg>
